%TF.GenerationSoftware,KiCad,Pcbnew,(6.0.7)*%
%TF.CreationDate,2022-09-17T11:26:50-05:00*%
%TF.ProjectId,BrushlessController,42727573-686c-4657-9373-436f6e74726f,-*%
%TF.SameCoordinates,Original*%
%TF.FileFunction,Drillmap*%
%TF.FilePolarity,Positive*%
%FSLAX45Y45*%
G04 Gerber Fmt 4.5, Leading zero omitted, Abs format (unit mm)*
G04 Created by KiCad (PCBNEW (6.0.7)) date 2022-09-17 11:26:50*
%MOMM*%
%LPD*%
G01*
G04 APERTURE LIST*
%ADD10C,0.100000*%
%ADD11C,0.200000*%
%ADD12C,0.127000*%
%ADD13C,0.320000*%
G04 APERTURE END LIST*
D10*
X11938000Y-6096000D02*
X4445000Y-6096000D01*
X4445000Y-6096000D02*
X4445000Y-11557000D01*
X4445000Y-11557000D02*
X11938000Y-11557000D01*
X11938000Y-11557000D02*
X11938000Y-6096000D01*
D11*
D10*
X10803000Y-6478500D02*
X10903000Y-6578500D01*
X10903000Y-6478500D02*
X10803000Y-6578500D01*
X11582500Y-8875000D02*
X11682500Y-8975000D01*
X11682500Y-8875000D02*
X11582500Y-8975000D01*
X11582500Y-10075000D02*
X11682500Y-10175000D01*
X11682500Y-10075000D02*
X11582500Y-10175000D01*
X11703000Y-6478500D02*
X11803000Y-6578500D01*
X11803000Y-6478500D02*
X11703000Y-6578500D01*
D12*
X5339500Y-8209000D02*
G75*
G03*
X5339500Y-8209000I-63500J0D01*
G01*
X5339500Y-9709000D02*
G75*
G03*
X5339500Y-9709000I-63500J0D01*
G01*
X5381000Y-6512000D02*
G75*
G03*
X5381000Y-6512000I-63500J0D01*
G01*
X5381000Y-7712000D02*
G75*
G03*
X5381000Y-7712000I-63500J0D01*
G01*
D13*
X4889500Y-10889000D02*
X4889500Y-11209000D01*
X4729500Y-11049000D02*
X5049500Y-11049000D01*
X9080500Y-7460000D02*
X9080500Y-7780000D01*
X8920500Y-7620000D02*
X9240500Y-7620000D01*
X9334500Y-10889000D02*
X9334500Y-11209000D01*
X9174500Y-11049000D02*
X9494500Y-11049000D01*
D11*
X4697619Y-11872476D02*
X4697619Y-11672476D01*
X4745238Y-11672476D01*
X4773810Y-11682000D01*
X4792857Y-11701048D01*
X4802381Y-11720095D01*
X4811905Y-11758190D01*
X4811905Y-11786762D01*
X4802381Y-11824857D01*
X4792857Y-11843905D01*
X4773810Y-11862952D01*
X4745238Y-11872476D01*
X4697619Y-11872476D01*
X4897619Y-11872476D02*
X4897619Y-11739143D01*
X4897619Y-11777238D02*
X4907143Y-11758190D01*
X4916667Y-11748667D01*
X4935714Y-11739143D01*
X4954762Y-11739143D01*
X5021429Y-11872476D02*
X5021429Y-11739143D01*
X5021429Y-11672476D02*
X5011905Y-11682000D01*
X5021429Y-11691524D01*
X5030952Y-11682000D01*
X5021429Y-11672476D01*
X5021429Y-11691524D01*
X5145238Y-11872476D02*
X5126190Y-11862952D01*
X5116667Y-11843905D01*
X5116667Y-11672476D01*
X5250000Y-11872476D02*
X5230952Y-11862952D01*
X5221429Y-11843905D01*
X5221429Y-11672476D01*
X5478571Y-11872476D02*
X5478571Y-11672476D01*
X5545238Y-11815333D01*
X5611905Y-11672476D01*
X5611905Y-11872476D01*
X5792857Y-11872476D02*
X5792857Y-11767714D01*
X5783333Y-11748667D01*
X5764286Y-11739143D01*
X5726190Y-11739143D01*
X5707143Y-11748667D01*
X5792857Y-11862952D02*
X5773809Y-11872476D01*
X5726190Y-11872476D01*
X5707143Y-11862952D01*
X5697619Y-11843905D01*
X5697619Y-11824857D01*
X5707143Y-11805809D01*
X5726190Y-11796286D01*
X5773809Y-11796286D01*
X5792857Y-11786762D01*
X5888095Y-11739143D02*
X5888095Y-11939143D01*
X5888095Y-11748667D02*
X5907143Y-11739143D01*
X5945238Y-11739143D01*
X5964286Y-11748667D01*
X5973809Y-11758190D01*
X5983333Y-11777238D01*
X5983333Y-11834381D01*
X5973809Y-11853428D01*
X5964286Y-11862952D01*
X5945238Y-11872476D01*
X5907143Y-11872476D01*
X5888095Y-11862952D01*
X6069048Y-11853428D02*
X6078571Y-11862952D01*
X6069048Y-11872476D01*
X6059524Y-11862952D01*
X6069048Y-11853428D01*
X6069048Y-11872476D01*
X6069048Y-11748667D02*
X6078571Y-11758190D01*
X6069048Y-11767714D01*
X6059524Y-11758190D01*
X6069048Y-11748667D01*
X6069048Y-11767714D01*
D10*
X4340000Y-12152000D02*
X4440000Y-12252000D01*
X4440000Y-12152000D02*
X4340000Y-12252000D01*
D11*
X4802381Y-12292476D02*
X4688095Y-12292476D01*
X4745238Y-12292476D02*
X4745238Y-12092476D01*
X4726190Y-12121048D01*
X4707143Y-12140095D01*
X4688095Y-12149619D01*
X4888095Y-12273428D02*
X4897619Y-12282952D01*
X4888095Y-12292476D01*
X4878571Y-12282952D01*
X4888095Y-12273428D01*
X4888095Y-12292476D01*
X5021429Y-12092476D02*
X5040476Y-12092476D01*
X5059524Y-12102000D01*
X5069048Y-12111524D01*
X5078571Y-12130571D01*
X5088095Y-12168667D01*
X5088095Y-12216286D01*
X5078571Y-12254381D01*
X5069048Y-12273428D01*
X5059524Y-12282952D01*
X5040476Y-12292476D01*
X5021429Y-12292476D01*
X5002381Y-12282952D01*
X4992857Y-12273428D01*
X4983333Y-12254381D01*
X4973810Y-12216286D01*
X4973810Y-12168667D01*
X4983333Y-12130571D01*
X4992857Y-12111524D01*
X5002381Y-12102000D01*
X5021429Y-12092476D01*
X5211905Y-12092476D02*
X5230952Y-12092476D01*
X5250000Y-12102000D01*
X5259524Y-12111524D01*
X5269048Y-12130571D01*
X5278571Y-12168667D01*
X5278571Y-12216286D01*
X5269048Y-12254381D01*
X5259524Y-12273428D01*
X5250000Y-12282952D01*
X5230952Y-12292476D01*
X5211905Y-12292476D01*
X5192857Y-12282952D01*
X5183333Y-12273428D01*
X5173810Y-12254381D01*
X5164286Y-12216286D01*
X5164286Y-12168667D01*
X5173810Y-12130571D01*
X5183333Y-12111524D01*
X5192857Y-12102000D01*
X5211905Y-12092476D01*
X5402381Y-12092476D02*
X5421429Y-12092476D01*
X5440476Y-12102000D01*
X5450000Y-12111524D01*
X5459524Y-12130571D01*
X5469048Y-12168667D01*
X5469048Y-12216286D01*
X5459524Y-12254381D01*
X5450000Y-12273428D01*
X5440476Y-12282952D01*
X5421429Y-12292476D01*
X5402381Y-12292476D01*
X5383333Y-12282952D01*
X5373810Y-12273428D01*
X5364286Y-12254381D01*
X5354762Y-12216286D01*
X5354762Y-12168667D01*
X5364286Y-12130571D01*
X5373810Y-12111524D01*
X5383333Y-12102000D01*
X5402381Y-12092476D01*
X5554762Y-12292476D02*
X5554762Y-12159143D01*
X5554762Y-12178190D02*
X5564286Y-12168667D01*
X5583333Y-12159143D01*
X5611905Y-12159143D01*
X5630952Y-12168667D01*
X5640476Y-12187714D01*
X5640476Y-12292476D01*
X5640476Y-12187714D02*
X5650000Y-12168667D01*
X5669048Y-12159143D01*
X5697619Y-12159143D01*
X5716667Y-12168667D01*
X5726190Y-12187714D01*
X5726190Y-12292476D01*
X5821428Y-12292476D02*
X5821428Y-12159143D01*
X5821428Y-12178190D02*
X5830952Y-12168667D01*
X5850000Y-12159143D01*
X5878571Y-12159143D01*
X5897619Y-12168667D01*
X5907143Y-12187714D01*
X5907143Y-12292476D01*
X5907143Y-12187714D02*
X5916667Y-12168667D01*
X5935714Y-12159143D01*
X5964286Y-12159143D01*
X5983333Y-12168667D01*
X5992857Y-12187714D01*
X5992857Y-12292476D01*
X6383333Y-12082952D02*
X6211905Y-12340095D01*
X6640476Y-12092476D02*
X6659524Y-12092476D01*
X6678571Y-12102000D01*
X6688095Y-12111524D01*
X6697619Y-12130571D01*
X6707143Y-12168667D01*
X6707143Y-12216286D01*
X6697619Y-12254381D01*
X6688095Y-12273428D01*
X6678571Y-12282952D01*
X6659524Y-12292476D01*
X6640476Y-12292476D01*
X6621428Y-12282952D01*
X6611905Y-12273428D01*
X6602381Y-12254381D01*
X6592857Y-12216286D01*
X6592857Y-12168667D01*
X6602381Y-12130571D01*
X6611905Y-12111524D01*
X6621428Y-12102000D01*
X6640476Y-12092476D01*
X6792857Y-12273428D02*
X6802381Y-12282952D01*
X6792857Y-12292476D01*
X6783333Y-12282952D01*
X6792857Y-12273428D01*
X6792857Y-12292476D01*
X6926190Y-12092476D02*
X6945238Y-12092476D01*
X6964286Y-12102000D01*
X6973809Y-12111524D01*
X6983333Y-12130571D01*
X6992857Y-12168667D01*
X6992857Y-12216286D01*
X6983333Y-12254381D01*
X6973809Y-12273428D01*
X6964286Y-12282952D01*
X6945238Y-12292476D01*
X6926190Y-12292476D01*
X6907143Y-12282952D01*
X6897619Y-12273428D01*
X6888095Y-12254381D01*
X6878571Y-12216286D01*
X6878571Y-12168667D01*
X6888095Y-12130571D01*
X6897619Y-12111524D01*
X6907143Y-12102000D01*
X6926190Y-12092476D01*
X7059524Y-12092476D02*
X7183333Y-12092476D01*
X7116667Y-12168667D01*
X7145238Y-12168667D01*
X7164286Y-12178190D01*
X7173809Y-12187714D01*
X7183333Y-12206762D01*
X7183333Y-12254381D01*
X7173809Y-12273428D01*
X7164286Y-12282952D01*
X7145238Y-12292476D01*
X7088095Y-12292476D01*
X7069048Y-12282952D01*
X7059524Y-12273428D01*
X7278571Y-12292476D02*
X7316667Y-12292476D01*
X7335714Y-12282952D01*
X7345238Y-12273428D01*
X7364286Y-12244857D01*
X7373809Y-12206762D01*
X7373809Y-12130571D01*
X7364286Y-12111524D01*
X7354762Y-12102000D01*
X7335714Y-12092476D01*
X7297619Y-12092476D01*
X7278571Y-12102000D01*
X7269048Y-12111524D01*
X7259524Y-12130571D01*
X7259524Y-12178190D01*
X7269048Y-12197238D01*
X7278571Y-12206762D01*
X7297619Y-12216286D01*
X7335714Y-12216286D01*
X7354762Y-12206762D01*
X7364286Y-12197238D01*
X7373809Y-12178190D01*
X7545238Y-12159143D02*
X7545238Y-12292476D01*
X7497619Y-12082952D02*
X7450000Y-12225809D01*
X7573809Y-12225809D01*
X7640476Y-12092476D02*
X7640476Y-12130571D01*
X7716667Y-12092476D02*
X7716667Y-12130571D01*
X8011905Y-12368667D02*
X8002381Y-12359143D01*
X7983333Y-12330571D01*
X7973809Y-12311524D01*
X7964286Y-12282952D01*
X7954762Y-12235333D01*
X7954762Y-12197238D01*
X7964286Y-12149619D01*
X7973809Y-12121048D01*
X7983333Y-12102000D01*
X8002381Y-12073428D01*
X8011905Y-12063905D01*
X8173809Y-12159143D02*
X8173809Y-12292476D01*
X8126190Y-12082952D02*
X8078571Y-12225809D01*
X8202381Y-12225809D01*
X8430952Y-12292476D02*
X8430952Y-12092476D01*
X8516667Y-12292476D02*
X8516667Y-12187714D01*
X8507143Y-12168667D01*
X8488095Y-12159143D01*
X8459524Y-12159143D01*
X8440476Y-12168667D01*
X8430952Y-12178190D01*
X8640476Y-12292476D02*
X8621429Y-12282952D01*
X8611905Y-12273428D01*
X8602381Y-12254381D01*
X8602381Y-12197238D01*
X8611905Y-12178190D01*
X8621429Y-12168667D01*
X8640476Y-12159143D01*
X8669048Y-12159143D01*
X8688095Y-12168667D01*
X8697619Y-12178190D01*
X8707143Y-12197238D01*
X8707143Y-12254381D01*
X8697619Y-12273428D01*
X8688095Y-12282952D01*
X8669048Y-12292476D01*
X8640476Y-12292476D01*
X8821429Y-12292476D02*
X8802381Y-12282952D01*
X8792857Y-12263905D01*
X8792857Y-12092476D01*
X8973810Y-12282952D02*
X8954762Y-12292476D01*
X8916667Y-12292476D01*
X8897619Y-12282952D01*
X8888095Y-12263905D01*
X8888095Y-12187714D01*
X8897619Y-12168667D01*
X8916667Y-12159143D01*
X8954762Y-12159143D01*
X8973810Y-12168667D01*
X8983333Y-12187714D01*
X8983333Y-12206762D01*
X8888095Y-12225809D01*
X9059524Y-12282952D02*
X9078571Y-12292476D01*
X9116667Y-12292476D01*
X9135714Y-12282952D01*
X9145238Y-12263905D01*
X9145238Y-12254381D01*
X9135714Y-12235333D01*
X9116667Y-12225809D01*
X9088095Y-12225809D01*
X9069048Y-12216286D01*
X9059524Y-12197238D01*
X9059524Y-12187714D01*
X9069048Y-12168667D01*
X9088095Y-12159143D01*
X9116667Y-12159143D01*
X9135714Y-12168667D01*
X9211905Y-12368667D02*
X9221429Y-12359143D01*
X9240476Y-12330571D01*
X9250000Y-12311524D01*
X9259524Y-12282952D01*
X9269048Y-12235333D01*
X9269048Y-12197238D01*
X9259524Y-12149619D01*
X9250000Y-12121048D01*
X9240476Y-12102000D01*
X9221429Y-12073428D01*
X9211905Y-12063905D01*
X9573810Y-12368667D02*
X9564286Y-12359143D01*
X9545238Y-12330571D01*
X9535714Y-12311524D01*
X9526190Y-12282952D01*
X9516667Y-12235333D01*
X9516667Y-12197238D01*
X9526190Y-12149619D01*
X9535714Y-12121048D01*
X9545238Y-12102000D01*
X9564286Y-12073428D01*
X9573810Y-12063905D01*
X9650000Y-12159143D02*
X9650000Y-12292476D01*
X9650000Y-12178190D02*
X9659524Y-12168667D01*
X9678571Y-12159143D01*
X9707143Y-12159143D01*
X9726190Y-12168667D01*
X9735714Y-12187714D01*
X9735714Y-12292476D01*
X9859524Y-12292476D02*
X9840476Y-12282952D01*
X9830952Y-12273428D01*
X9821429Y-12254381D01*
X9821429Y-12197238D01*
X9830952Y-12178190D01*
X9840476Y-12168667D01*
X9859524Y-12159143D01*
X9888095Y-12159143D01*
X9907143Y-12168667D01*
X9916667Y-12178190D01*
X9926190Y-12197238D01*
X9926190Y-12254381D01*
X9916667Y-12273428D01*
X9907143Y-12282952D01*
X9888095Y-12292476D01*
X9859524Y-12292476D01*
X9983333Y-12159143D02*
X10059524Y-12159143D01*
X10011905Y-12092476D02*
X10011905Y-12263905D01*
X10021429Y-12282952D01*
X10040476Y-12292476D01*
X10059524Y-12292476D01*
X10278571Y-12159143D02*
X10278571Y-12359143D01*
X10278571Y-12168667D02*
X10297619Y-12159143D01*
X10335714Y-12159143D01*
X10354762Y-12168667D01*
X10364286Y-12178190D01*
X10373810Y-12197238D01*
X10373810Y-12254381D01*
X10364286Y-12273428D01*
X10354762Y-12282952D01*
X10335714Y-12292476D01*
X10297619Y-12292476D01*
X10278571Y-12282952D01*
X10488095Y-12292476D02*
X10469048Y-12282952D01*
X10459524Y-12263905D01*
X10459524Y-12092476D01*
X10650000Y-12292476D02*
X10650000Y-12187714D01*
X10640476Y-12168667D01*
X10621429Y-12159143D01*
X10583333Y-12159143D01*
X10564286Y-12168667D01*
X10650000Y-12282952D02*
X10630952Y-12292476D01*
X10583333Y-12292476D01*
X10564286Y-12282952D01*
X10554762Y-12263905D01*
X10554762Y-12244857D01*
X10564286Y-12225809D01*
X10583333Y-12216286D01*
X10630952Y-12216286D01*
X10650000Y-12206762D01*
X10716667Y-12159143D02*
X10792857Y-12159143D01*
X10745238Y-12092476D02*
X10745238Y-12263905D01*
X10754762Y-12282952D01*
X10773810Y-12292476D01*
X10792857Y-12292476D01*
X10935714Y-12282952D02*
X10916667Y-12292476D01*
X10878571Y-12292476D01*
X10859524Y-12282952D01*
X10850000Y-12263905D01*
X10850000Y-12187714D01*
X10859524Y-12168667D01*
X10878571Y-12159143D01*
X10916667Y-12159143D01*
X10935714Y-12168667D01*
X10945238Y-12187714D01*
X10945238Y-12206762D01*
X10850000Y-12225809D01*
X11116667Y-12292476D02*
X11116667Y-12092476D01*
X11116667Y-12282952D02*
X11097619Y-12292476D01*
X11059524Y-12292476D01*
X11040476Y-12282952D01*
X11030952Y-12273428D01*
X11021429Y-12254381D01*
X11021429Y-12197238D01*
X11030952Y-12178190D01*
X11040476Y-12168667D01*
X11059524Y-12159143D01*
X11097619Y-12159143D01*
X11116667Y-12168667D01*
X11192857Y-12368667D02*
X11202381Y-12359143D01*
X11221428Y-12330571D01*
X11230952Y-12311524D01*
X11240476Y-12282952D01*
X11250000Y-12235333D01*
X11250000Y-12197238D01*
X11240476Y-12149619D01*
X11230952Y-12121048D01*
X11221428Y-12102000D01*
X11202381Y-12073428D01*
X11192857Y-12063905D01*
D12*
X4440000Y-12466000D02*
G75*
G03*
X4440000Y-12466000I-63500J0D01*
G01*
D11*
X4802381Y-12556476D02*
X4688095Y-12556476D01*
X4745238Y-12556476D02*
X4745238Y-12356476D01*
X4726190Y-12385048D01*
X4707143Y-12404095D01*
X4688095Y-12413619D01*
X4888095Y-12537428D02*
X4897619Y-12546952D01*
X4888095Y-12556476D01*
X4878571Y-12546952D01*
X4888095Y-12537428D01*
X4888095Y-12556476D01*
X4973810Y-12375524D02*
X4983333Y-12366000D01*
X5002381Y-12356476D01*
X5050000Y-12356476D01*
X5069048Y-12366000D01*
X5078571Y-12375524D01*
X5088095Y-12394571D01*
X5088095Y-12413619D01*
X5078571Y-12442190D01*
X4964286Y-12556476D01*
X5088095Y-12556476D01*
X5154762Y-12356476D02*
X5288095Y-12356476D01*
X5202381Y-12556476D01*
X5402381Y-12356476D02*
X5421429Y-12356476D01*
X5440476Y-12366000D01*
X5450000Y-12375524D01*
X5459524Y-12394571D01*
X5469048Y-12432667D01*
X5469048Y-12480286D01*
X5459524Y-12518381D01*
X5450000Y-12537428D01*
X5440476Y-12546952D01*
X5421429Y-12556476D01*
X5402381Y-12556476D01*
X5383333Y-12546952D01*
X5373810Y-12537428D01*
X5364286Y-12518381D01*
X5354762Y-12480286D01*
X5354762Y-12432667D01*
X5364286Y-12394571D01*
X5373810Y-12375524D01*
X5383333Y-12366000D01*
X5402381Y-12356476D01*
X5554762Y-12556476D02*
X5554762Y-12423143D01*
X5554762Y-12442190D02*
X5564286Y-12432667D01*
X5583333Y-12423143D01*
X5611905Y-12423143D01*
X5630952Y-12432667D01*
X5640476Y-12451714D01*
X5640476Y-12556476D01*
X5640476Y-12451714D02*
X5650000Y-12432667D01*
X5669048Y-12423143D01*
X5697619Y-12423143D01*
X5716667Y-12432667D01*
X5726190Y-12451714D01*
X5726190Y-12556476D01*
X5821428Y-12556476D02*
X5821428Y-12423143D01*
X5821428Y-12442190D02*
X5830952Y-12432667D01*
X5850000Y-12423143D01*
X5878571Y-12423143D01*
X5897619Y-12432667D01*
X5907143Y-12451714D01*
X5907143Y-12556476D01*
X5907143Y-12451714D02*
X5916667Y-12432667D01*
X5935714Y-12423143D01*
X5964286Y-12423143D01*
X5983333Y-12432667D01*
X5992857Y-12451714D01*
X5992857Y-12556476D01*
X6383333Y-12346952D02*
X6211905Y-12604095D01*
X6640476Y-12356476D02*
X6659524Y-12356476D01*
X6678571Y-12366000D01*
X6688095Y-12375524D01*
X6697619Y-12394571D01*
X6707143Y-12432667D01*
X6707143Y-12480286D01*
X6697619Y-12518381D01*
X6688095Y-12537428D01*
X6678571Y-12546952D01*
X6659524Y-12556476D01*
X6640476Y-12556476D01*
X6621428Y-12546952D01*
X6611905Y-12537428D01*
X6602381Y-12518381D01*
X6592857Y-12480286D01*
X6592857Y-12432667D01*
X6602381Y-12394571D01*
X6611905Y-12375524D01*
X6621428Y-12366000D01*
X6640476Y-12356476D01*
X6792857Y-12537428D02*
X6802381Y-12546952D01*
X6792857Y-12556476D01*
X6783333Y-12546952D01*
X6792857Y-12537428D01*
X6792857Y-12556476D01*
X6926190Y-12356476D02*
X6945238Y-12356476D01*
X6964286Y-12366000D01*
X6973809Y-12375524D01*
X6983333Y-12394571D01*
X6992857Y-12432667D01*
X6992857Y-12480286D01*
X6983333Y-12518381D01*
X6973809Y-12537428D01*
X6964286Y-12546952D01*
X6945238Y-12556476D01*
X6926190Y-12556476D01*
X6907143Y-12546952D01*
X6897619Y-12537428D01*
X6888095Y-12518381D01*
X6878571Y-12480286D01*
X6878571Y-12432667D01*
X6888095Y-12394571D01*
X6897619Y-12375524D01*
X6907143Y-12366000D01*
X6926190Y-12356476D01*
X7173809Y-12356476D02*
X7078571Y-12356476D01*
X7069048Y-12451714D01*
X7078571Y-12442190D01*
X7097619Y-12432667D01*
X7145238Y-12432667D01*
X7164286Y-12442190D01*
X7173809Y-12451714D01*
X7183333Y-12470762D01*
X7183333Y-12518381D01*
X7173809Y-12537428D01*
X7164286Y-12546952D01*
X7145238Y-12556476D01*
X7097619Y-12556476D01*
X7078571Y-12546952D01*
X7069048Y-12537428D01*
X7307143Y-12356476D02*
X7326190Y-12356476D01*
X7345238Y-12366000D01*
X7354762Y-12375524D01*
X7364286Y-12394571D01*
X7373809Y-12432667D01*
X7373809Y-12480286D01*
X7364286Y-12518381D01*
X7354762Y-12537428D01*
X7345238Y-12546952D01*
X7326190Y-12556476D01*
X7307143Y-12556476D01*
X7288095Y-12546952D01*
X7278571Y-12537428D01*
X7269048Y-12518381D01*
X7259524Y-12480286D01*
X7259524Y-12432667D01*
X7269048Y-12394571D01*
X7278571Y-12375524D01*
X7288095Y-12366000D01*
X7307143Y-12356476D01*
X7497619Y-12356476D02*
X7516667Y-12356476D01*
X7535714Y-12366000D01*
X7545238Y-12375524D01*
X7554762Y-12394571D01*
X7564286Y-12432667D01*
X7564286Y-12480286D01*
X7554762Y-12518381D01*
X7545238Y-12537428D01*
X7535714Y-12546952D01*
X7516667Y-12556476D01*
X7497619Y-12556476D01*
X7478571Y-12546952D01*
X7469048Y-12537428D01*
X7459524Y-12518381D01*
X7450000Y-12480286D01*
X7450000Y-12432667D01*
X7459524Y-12394571D01*
X7469048Y-12375524D01*
X7478571Y-12366000D01*
X7497619Y-12356476D01*
X7640476Y-12356476D02*
X7640476Y-12394571D01*
X7716667Y-12356476D02*
X7716667Y-12394571D01*
X8011905Y-12632667D02*
X8002381Y-12623143D01*
X7983333Y-12594571D01*
X7973809Y-12575524D01*
X7964286Y-12546952D01*
X7954762Y-12499333D01*
X7954762Y-12461238D01*
X7964286Y-12413619D01*
X7973809Y-12385048D01*
X7983333Y-12366000D01*
X8002381Y-12337428D01*
X8011905Y-12327905D01*
X8173809Y-12423143D02*
X8173809Y-12556476D01*
X8126190Y-12346952D02*
X8078571Y-12489809D01*
X8202381Y-12489809D01*
X8430952Y-12556476D02*
X8430952Y-12356476D01*
X8516667Y-12556476D02*
X8516667Y-12451714D01*
X8507143Y-12432667D01*
X8488095Y-12423143D01*
X8459524Y-12423143D01*
X8440476Y-12432667D01*
X8430952Y-12442190D01*
X8640476Y-12556476D02*
X8621429Y-12546952D01*
X8611905Y-12537428D01*
X8602381Y-12518381D01*
X8602381Y-12461238D01*
X8611905Y-12442190D01*
X8621429Y-12432667D01*
X8640476Y-12423143D01*
X8669048Y-12423143D01*
X8688095Y-12432667D01*
X8697619Y-12442190D01*
X8707143Y-12461238D01*
X8707143Y-12518381D01*
X8697619Y-12537428D01*
X8688095Y-12546952D01*
X8669048Y-12556476D01*
X8640476Y-12556476D01*
X8821429Y-12556476D02*
X8802381Y-12546952D01*
X8792857Y-12527905D01*
X8792857Y-12356476D01*
X8973810Y-12546952D02*
X8954762Y-12556476D01*
X8916667Y-12556476D01*
X8897619Y-12546952D01*
X8888095Y-12527905D01*
X8888095Y-12451714D01*
X8897619Y-12432667D01*
X8916667Y-12423143D01*
X8954762Y-12423143D01*
X8973810Y-12432667D01*
X8983333Y-12451714D01*
X8983333Y-12470762D01*
X8888095Y-12489809D01*
X9059524Y-12546952D02*
X9078571Y-12556476D01*
X9116667Y-12556476D01*
X9135714Y-12546952D01*
X9145238Y-12527905D01*
X9145238Y-12518381D01*
X9135714Y-12499333D01*
X9116667Y-12489809D01*
X9088095Y-12489809D01*
X9069048Y-12480286D01*
X9059524Y-12461238D01*
X9059524Y-12451714D01*
X9069048Y-12432667D01*
X9088095Y-12423143D01*
X9116667Y-12423143D01*
X9135714Y-12432667D01*
X9211905Y-12632667D02*
X9221429Y-12623143D01*
X9240476Y-12594571D01*
X9250000Y-12575524D01*
X9259524Y-12546952D01*
X9269048Y-12499333D01*
X9269048Y-12461238D01*
X9259524Y-12413619D01*
X9250000Y-12385048D01*
X9240476Y-12366000D01*
X9221429Y-12337428D01*
X9211905Y-12327905D01*
X9573810Y-12632667D02*
X9564286Y-12623143D01*
X9545238Y-12594571D01*
X9535714Y-12575524D01*
X9526190Y-12546952D01*
X9516667Y-12499333D01*
X9516667Y-12461238D01*
X9526190Y-12413619D01*
X9535714Y-12385048D01*
X9545238Y-12366000D01*
X9564286Y-12337428D01*
X9573810Y-12327905D01*
X9650000Y-12423143D02*
X9650000Y-12556476D01*
X9650000Y-12442190D02*
X9659524Y-12432667D01*
X9678571Y-12423143D01*
X9707143Y-12423143D01*
X9726190Y-12432667D01*
X9735714Y-12451714D01*
X9735714Y-12556476D01*
X9859524Y-12556476D02*
X9840476Y-12546952D01*
X9830952Y-12537428D01*
X9821429Y-12518381D01*
X9821429Y-12461238D01*
X9830952Y-12442190D01*
X9840476Y-12432667D01*
X9859524Y-12423143D01*
X9888095Y-12423143D01*
X9907143Y-12432667D01*
X9916667Y-12442190D01*
X9926190Y-12461238D01*
X9926190Y-12518381D01*
X9916667Y-12537428D01*
X9907143Y-12546952D01*
X9888095Y-12556476D01*
X9859524Y-12556476D01*
X9983333Y-12423143D02*
X10059524Y-12423143D01*
X10011905Y-12356476D02*
X10011905Y-12527905D01*
X10021429Y-12546952D01*
X10040476Y-12556476D01*
X10059524Y-12556476D01*
X10278571Y-12423143D02*
X10278571Y-12623143D01*
X10278571Y-12432667D02*
X10297619Y-12423143D01*
X10335714Y-12423143D01*
X10354762Y-12432667D01*
X10364286Y-12442190D01*
X10373810Y-12461238D01*
X10373810Y-12518381D01*
X10364286Y-12537428D01*
X10354762Y-12546952D01*
X10335714Y-12556476D01*
X10297619Y-12556476D01*
X10278571Y-12546952D01*
X10488095Y-12556476D02*
X10469048Y-12546952D01*
X10459524Y-12527905D01*
X10459524Y-12356476D01*
X10650000Y-12556476D02*
X10650000Y-12451714D01*
X10640476Y-12432667D01*
X10621429Y-12423143D01*
X10583333Y-12423143D01*
X10564286Y-12432667D01*
X10650000Y-12546952D02*
X10630952Y-12556476D01*
X10583333Y-12556476D01*
X10564286Y-12546952D01*
X10554762Y-12527905D01*
X10554762Y-12508857D01*
X10564286Y-12489809D01*
X10583333Y-12480286D01*
X10630952Y-12480286D01*
X10650000Y-12470762D01*
X10716667Y-12423143D02*
X10792857Y-12423143D01*
X10745238Y-12356476D02*
X10745238Y-12527905D01*
X10754762Y-12546952D01*
X10773810Y-12556476D01*
X10792857Y-12556476D01*
X10935714Y-12546952D02*
X10916667Y-12556476D01*
X10878571Y-12556476D01*
X10859524Y-12546952D01*
X10850000Y-12527905D01*
X10850000Y-12451714D01*
X10859524Y-12432667D01*
X10878571Y-12423143D01*
X10916667Y-12423143D01*
X10935714Y-12432667D01*
X10945238Y-12451714D01*
X10945238Y-12470762D01*
X10850000Y-12489809D01*
X11116667Y-12556476D02*
X11116667Y-12356476D01*
X11116667Y-12546952D02*
X11097619Y-12556476D01*
X11059524Y-12556476D01*
X11040476Y-12546952D01*
X11030952Y-12537428D01*
X11021429Y-12518381D01*
X11021429Y-12461238D01*
X11030952Y-12442190D01*
X11040476Y-12432667D01*
X11059524Y-12423143D01*
X11097619Y-12423143D01*
X11116667Y-12432667D01*
X11192857Y-12632667D02*
X11202381Y-12623143D01*
X11221428Y-12594571D01*
X11230952Y-12575524D01*
X11240476Y-12546952D01*
X11250000Y-12499333D01*
X11250000Y-12461238D01*
X11240476Y-12413619D01*
X11230952Y-12385048D01*
X11221428Y-12366000D01*
X11202381Y-12337428D01*
X11192857Y-12327905D01*
X4340000Y-12630000D02*
X4340000Y-12830000D01*
X4240000Y-12730000D02*
X4440000Y-12730000D01*
X4678571Y-12620476D02*
X4802381Y-12620476D01*
X4735714Y-12696667D01*
X4764286Y-12696667D01*
X4783333Y-12706190D01*
X4792857Y-12715714D01*
X4802381Y-12734762D01*
X4802381Y-12782381D01*
X4792857Y-12801428D01*
X4783333Y-12810952D01*
X4764286Y-12820476D01*
X4707143Y-12820476D01*
X4688095Y-12810952D01*
X4678571Y-12801428D01*
X4888095Y-12801428D02*
X4897619Y-12810952D01*
X4888095Y-12820476D01*
X4878571Y-12810952D01*
X4888095Y-12801428D01*
X4888095Y-12820476D01*
X4973810Y-12639524D02*
X4983333Y-12630000D01*
X5002381Y-12620476D01*
X5050000Y-12620476D01*
X5069048Y-12630000D01*
X5078571Y-12639524D01*
X5088095Y-12658571D01*
X5088095Y-12677619D01*
X5078571Y-12706190D01*
X4964286Y-12820476D01*
X5088095Y-12820476D01*
X5211905Y-12620476D02*
X5230952Y-12620476D01*
X5250000Y-12630000D01*
X5259524Y-12639524D01*
X5269048Y-12658571D01*
X5278571Y-12696667D01*
X5278571Y-12744286D01*
X5269048Y-12782381D01*
X5259524Y-12801428D01*
X5250000Y-12810952D01*
X5230952Y-12820476D01*
X5211905Y-12820476D01*
X5192857Y-12810952D01*
X5183333Y-12801428D01*
X5173810Y-12782381D01*
X5164286Y-12744286D01*
X5164286Y-12696667D01*
X5173810Y-12658571D01*
X5183333Y-12639524D01*
X5192857Y-12630000D01*
X5211905Y-12620476D01*
X5402381Y-12620476D02*
X5421429Y-12620476D01*
X5440476Y-12630000D01*
X5450000Y-12639524D01*
X5459524Y-12658571D01*
X5469048Y-12696667D01*
X5469048Y-12744286D01*
X5459524Y-12782381D01*
X5450000Y-12801428D01*
X5440476Y-12810952D01*
X5421429Y-12820476D01*
X5402381Y-12820476D01*
X5383333Y-12810952D01*
X5373810Y-12801428D01*
X5364286Y-12782381D01*
X5354762Y-12744286D01*
X5354762Y-12696667D01*
X5364286Y-12658571D01*
X5373810Y-12639524D01*
X5383333Y-12630000D01*
X5402381Y-12620476D01*
X5554762Y-12820476D02*
X5554762Y-12687143D01*
X5554762Y-12706190D02*
X5564286Y-12696667D01*
X5583333Y-12687143D01*
X5611905Y-12687143D01*
X5630952Y-12696667D01*
X5640476Y-12715714D01*
X5640476Y-12820476D01*
X5640476Y-12715714D02*
X5650000Y-12696667D01*
X5669048Y-12687143D01*
X5697619Y-12687143D01*
X5716667Y-12696667D01*
X5726190Y-12715714D01*
X5726190Y-12820476D01*
X5821428Y-12820476D02*
X5821428Y-12687143D01*
X5821428Y-12706190D02*
X5830952Y-12696667D01*
X5850000Y-12687143D01*
X5878571Y-12687143D01*
X5897619Y-12696667D01*
X5907143Y-12715714D01*
X5907143Y-12820476D01*
X5907143Y-12715714D02*
X5916667Y-12696667D01*
X5935714Y-12687143D01*
X5964286Y-12687143D01*
X5983333Y-12696667D01*
X5992857Y-12715714D01*
X5992857Y-12820476D01*
X6383333Y-12610952D02*
X6211905Y-12868095D01*
X6640476Y-12620476D02*
X6659524Y-12620476D01*
X6678571Y-12630000D01*
X6688095Y-12639524D01*
X6697619Y-12658571D01*
X6707143Y-12696667D01*
X6707143Y-12744286D01*
X6697619Y-12782381D01*
X6688095Y-12801428D01*
X6678571Y-12810952D01*
X6659524Y-12820476D01*
X6640476Y-12820476D01*
X6621428Y-12810952D01*
X6611905Y-12801428D01*
X6602381Y-12782381D01*
X6592857Y-12744286D01*
X6592857Y-12696667D01*
X6602381Y-12658571D01*
X6611905Y-12639524D01*
X6621428Y-12630000D01*
X6640476Y-12620476D01*
X6792857Y-12801428D02*
X6802381Y-12810952D01*
X6792857Y-12820476D01*
X6783333Y-12810952D01*
X6792857Y-12801428D01*
X6792857Y-12820476D01*
X6992857Y-12820476D02*
X6878571Y-12820476D01*
X6935714Y-12820476D02*
X6935714Y-12620476D01*
X6916667Y-12649048D01*
X6897619Y-12668095D01*
X6878571Y-12677619D01*
X7069048Y-12639524D02*
X7078571Y-12630000D01*
X7097619Y-12620476D01*
X7145238Y-12620476D01*
X7164286Y-12630000D01*
X7173809Y-12639524D01*
X7183333Y-12658571D01*
X7183333Y-12677619D01*
X7173809Y-12706190D01*
X7059524Y-12820476D01*
X7183333Y-12820476D01*
X7354762Y-12620476D02*
X7316667Y-12620476D01*
X7297619Y-12630000D01*
X7288095Y-12639524D01*
X7269048Y-12668095D01*
X7259524Y-12706190D01*
X7259524Y-12782381D01*
X7269048Y-12801428D01*
X7278571Y-12810952D01*
X7297619Y-12820476D01*
X7335714Y-12820476D01*
X7354762Y-12810952D01*
X7364286Y-12801428D01*
X7373809Y-12782381D01*
X7373809Y-12734762D01*
X7364286Y-12715714D01*
X7354762Y-12706190D01*
X7335714Y-12696667D01*
X7297619Y-12696667D01*
X7278571Y-12706190D01*
X7269048Y-12715714D01*
X7259524Y-12734762D01*
X7497619Y-12620476D02*
X7516667Y-12620476D01*
X7535714Y-12630000D01*
X7545238Y-12639524D01*
X7554762Y-12658571D01*
X7564286Y-12696667D01*
X7564286Y-12744286D01*
X7554762Y-12782381D01*
X7545238Y-12801428D01*
X7535714Y-12810952D01*
X7516667Y-12820476D01*
X7497619Y-12820476D01*
X7478571Y-12810952D01*
X7469048Y-12801428D01*
X7459524Y-12782381D01*
X7450000Y-12744286D01*
X7450000Y-12696667D01*
X7459524Y-12658571D01*
X7469048Y-12639524D01*
X7478571Y-12630000D01*
X7497619Y-12620476D01*
X7640476Y-12620476D02*
X7640476Y-12658571D01*
X7716667Y-12620476D02*
X7716667Y-12658571D01*
X8011905Y-12896667D02*
X8002381Y-12887143D01*
X7983333Y-12858571D01*
X7973809Y-12839524D01*
X7964286Y-12810952D01*
X7954762Y-12763333D01*
X7954762Y-12725238D01*
X7964286Y-12677619D01*
X7973809Y-12649048D01*
X7983333Y-12630000D01*
X8002381Y-12601428D01*
X8011905Y-12591905D01*
X8069048Y-12620476D02*
X8192857Y-12620476D01*
X8126190Y-12696667D01*
X8154762Y-12696667D01*
X8173809Y-12706190D01*
X8183333Y-12715714D01*
X8192857Y-12734762D01*
X8192857Y-12782381D01*
X8183333Y-12801428D01*
X8173809Y-12810952D01*
X8154762Y-12820476D01*
X8097619Y-12820476D01*
X8078571Y-12810952D01*
X8069048Y-12801428D01*
X8430952Y-12820476D02*
X8430952Y-12620476D01*
X8516667Y-12820476D02*
X8516667Y-12715714D01*
X8507143Y-12696667D01*
X8488095Y-12687143D01*
X8459524Y-12687143D01*
X8440476Y-12696667D01*
X8430952Y-12706190D01*
X8640476Y-12820476D02*
X8621429Y-12810952D01*
X8611905Y-12801428D01*
X8602381Y-12782381D01*
X8602381Y-12725238D01*
X8611905Y-12706190D01*
X8621429Y-12696667D01*
X8640476Y-12687143D01*
X8669048Y-12687143D01*
X8688095Y-12696667D01*
X8697619Y-12706190D01*
X8707143Y-12725238D01*
X8707143Y-12782381D01*
X8697619Y-12801428D01*
X8688095Y-12810952D01*
X8669048Y-12820476D01*
X8640476Y-12820476D01*
X8821429Y-12820476D02*
X8802381Y-12810952D01*
X8792857Y-12791905D01*
X8792857Y-12620476D01*
X8973810Y-12810952D02*
X8954762Y-12820476D01*
X8916667Y-12820476D01*
X8897619Y-12810952D01*
X8888095Y-12791905D01*
X8888095Y-12715714D01*
X8897619Y-12696667D01*
X8916667Y-12687143D01*
X8954762Y-12687143D01*
X8973810Y-12696667D01*
X8983333Y-12715714D01*
X8983333Y-12734762D01*
X8888095Y-12753809D01*
X9059524Y-12810952D02*
X9078571Y-12820476D01*
X9116667Y-12820476D01*
X9135714Y-12810952D01*
X9145238Y-12791905D01*
X9145238Y-12782381D01*
X9135714Y-12763333D01*
X9116667Y-12753809D01*
X9088095Y-12753809D01*
X9069048Y-12744286D01*
X9059524Y-12725238D01*
X9059524Y-12715714D01*
X9069048Y-12696667D01*
X9088095Y-12687143D01*
X9116667Y-12687143D01*
X9135714Y-12696667D01*
X9211905Y-12896667D02*
X9221429Y-12887143D01*
X9240476Y-12858571D01*
X9250000Y-12839524D01*
X9259524Y-12810952D01*
X9269048Y-12763333D01*
X9269048Y-12725238D01*
X9259524Y-12677619D01*
X9250000Y-12649048D01*
X9240476Y-12630000D01*
X9221429Y-12601428D01*
X9211905Y-12591905D01*
X9573810Y-12896667D02*
X9564286Y-12887143D01*
X9545238Y-12858571D01*
X9535714Y-12839524D01*
X9526190Y-12810952D01*
X9516667Y-12763333D01*
X9516667Y-12725238D01*
X9526190Y-12677619D01*
X9535714Y-12649048D01*
X9545238Y-12630000D01*
X9564286Y-12601428D01*
X9573810Y-12591905D01*
X9650000Y-12687143D02*
X9650000Y-12820476D01*
X9650000Y-12706190D02*
X9659524Y-12696667D01*
X9678571Y-12687143D01*
X9707143Y-12687143D01*
X9726190Y-12696667D01*
X9735714Y-12715714D01*
X9735714Y-12820476D01*
X9859524Y-12820476D02*
X9840476Y-12810952D01*
X9830952Y-12801428D01*
X9821429Y-12782381D01*
X9821429Y-12725238D01*
X9830952Y-12706190D01*
X9840476Y-12696667D01*
X9859524Y-12687143D01*
X9888095Y-12687143D01*
X9907143Y-12696667D01*
X9916667Y-12706190D01*
X9926190Y-12725238D01*
X9926190Y-12782381D01*
X9916667Y-12801428D01*
X9907143Y-12810952D01*
X9888095Y-12820476D01*
X9859524Y-12820476D01*
X9983333Y-12687143D02*
X10059524Y-12687143D01*
X10011905Y-12620476D02*
X10011905Y-12791905D01*
X10021429Y-12810952D01*
X10040476Y-12820476D01*
X10059524Y-12820476D01*
X10278571Y-12687143D02*
X10278571Y-12887143D01*
X10278571Y-12696667D02*
X10297619Y-12687143D01*
X10335714Y-12687143D01*
X10354762Y-12696667D01*
X10364286Y-12706190D01*
X10373810Y-12725238D01*
X10373810Y-12782381D01*
X10364286Y-12801428D01*
X10354762Y-12810952D01*
X10335714Y-12820476D01*
X10297619Y-12820476D01*
X10278571Y-12810952D01*
X10488095Y-12820476D02*
X10469048Y-12810952D01*
X10459524Y-12791905D01*
X10459524Y-12620476D01*
X10650000Y-12820476D02*
X10650000Y-12715714D01*
X10640476Y-12696667D01*
X10621429Y-12687143D01*
X10583333Y-12687143D01*
X10564286Y-12696667D01*
X10650000Y-12810952D02*
X10630952Y-12820476D01*
X10583333Y-12820476D01*
X10564286Y-12810952D01*
X10554762Y-12791905D01*
X10554762Y-12772857D01*
X10564286Y-12753809D01*
X10583333Y-12744286D01*
X10630952Y-12744286D01*
X10650000Y-12734762D01*
X10716667Y-12687143D02*
X10792857Y-12687143D01*
X10745238Y-12620476D02*
X10745238Y-12791905D01*
X10754762Y-12810952D01*
X10773810Y-12820476D01*
X10792857Y-12820476D01*
X10935714Y-12810952D02*
X10916667Y-12820476D01*
X10878571Y-12820476D01*
X10859524Y-12810952D01*
X10850000Y-12791905D01*
X10850000Y-12715714D01*
X10859524Y-12696667D01*
X10878571Y-12687143D01*
X10916667Y-12687143D01*
X10935714Y-12696667D01*
X10945238Y-12715714D01*
X10945238Y-12734762D01*
X10850000Y-12753809D01*
X11116667Y-12820476D02*
X11116667Y-12620476D01*
X11116667Y-12810952D02*
X11097619Y-12820476D01*
X11059524Y-12820476D01*
X11040476Y-12810952D01*
X11030952Y-12801428D01*
X11021429Y-12782381D01*
X11021429Y-12725238D01*
X11030952Y-12706190D01*
X11040476Y-12696667D01*
X11059524Y-12687143D01*
X11097619Y-12687143D01*
X11116667Y-12696667D01*
X11192857Y-12896667D02*
X11202381Y-12887143D01*
X11221428Y-12858571D01*
X11230952Y-12839524D01*
X11240476Y-12810952D01*
X11250000Y-12763333D01*
X11250000Y-12725238D01*
X11240476Y-12677619D01*
X11230952Y-12649048D01*
X11221428Y-12630000D01*
X11202381Y-12601428D01*
X11192857Y-12591905D01*
M02*
