M48
; DRILL file {KiCad (6.0.7)} date Sat Sep 17 11:26:49 2022
; FORMAT={-:-/ absolute / inch / decimal}
; #@! TF.CreationDate,2022-09-17T11:26:49-05:00
; #@! TF.GenerationSoftware,Kicad,Pcbnew,(6.0.7)
; #@! TF.FileFunction,Plated,1,2,PTH
FMAT,2
INCH
; #@! TA.AperFunction,Plated,PTH,ViaDrill
T1C0.0157
; #@! TA.AperFunction,Plated,PTH,ComponentDrill
T2C0.0295
; #@! TA.AperFunction,Plated,PTH,ComponentDrill
T3C0.0315
; #@! TA.AperFunction,Plated,PTH,ComponentDrill
T4C0.0394
; #@! TA.AperFunction,Plated,PTH,ComponentDrill
T5C0.0402
; #@! TA.AperFunction,Plated,PTH,ComponentDrill
T6C0.0433
; #@! TA.AperFunction,Plated,PTH,ComponentDrill
T7C0.0787
%
G90
G05
T1
X2.0Y-4.0
X2.3Y-4.25
X2.45Y-4.35
X2.9Y-2.75
X3.05Y-3.275
X3.05Y-3.6
X3.1Y-3.05
X3.15Y-3.275
X3.25Y-3.2
X3.3Y-3.05
X3.3Y-4.4
X4.05Y-3.15
X4.35Y-3.0
T2
X4.15Y-3.05
X4.15Y-4.35
X4.2Y-3.05
X4.2Y-4.35
X4.25Y-3.05
X4.25Y-4.35
X4.5Y-3.05
X4.5Y-4.35
X4.55Y-3.05
X4.55Y-4.35
X4.6Y-3.05
X4.6Y-4.35
T3
X2.4Y-2.6004
X2.4Y-2.7004
X2.4Y-2.8004
X2.4Y-2.9004
X2.4Y-3.15
X2.4Y-3.35
X2.6Y-3.75
X2.6Y-3.85
X2.6Y-3.95
X2.6Y-4.05
X2.6Y-4.15
X2.6Y-4.25
X2.6Y-4.35
X2.7Y-2.6004
X2.7Y-2.7004
X2.7Y-2.8004
X2.7Y-2.9004
X2.7Y-3.15
X2.7Y-3.35
X2.9Y-3.75
X2.9Y-3.85
X2.9Y-3.95
X2.9Y-4.05
X2.9Y-4.15
X2.9Y-4.25
X2.9Y-4.35
X3.4Y-3.35
X3.4Y-3.45
X3.4Y-3.55
X3.4Y-3.65
X3.4Y-3.75
X3.4Y-3.85
X3.4Y-3.95
X3.4Y-4.05
X3.7Y-3.35
X3.7Y-3.45
X3.7Y-3.55
X3.7Y-3.65
X3.7Y-3.75
X3.7Y-3.85
X3.7Y-3.95
X3.7Y-4.05
T4
X4.3909Y-2.6073
X4.3909Y-2.7254
X4.4246Y-3.6319
X4.4246Y-3.75
X4.4246Y-3.8681
X4.5091Y-2.6073
X4.5091Y-2.7254
X4.5427Y-3.6319
X4.5427Y-3.75
X4.5427Y-3.8681
T5
X2.0Y-3.35
X2.0Y-3.4681
X2.0Y-3.5862
X2.0Y-3.7043
X2.0163Y-2.6819
X2.0163Y-2.8
X2.0163Y-2.9181
T6
X3.1Y-2.6128
X3.2Y-2.6128
X3.3Y-2.6128
T7
G00X3.6646Y-2.65
M15
G01X3.6055Y-2.65
M16
G05
G00X3.9795Y-2.65
M15
G01X3.9205Y-2.65
M16
G05
T0
M30
