%TF.GenerationSoftware,KiCad,Pcbnew,(6.0.7)*%
%TF.CreationDate,2022-09-17T11:26:50-05:00*%
%TF.ProjectId,BrushlessController,42727573-686c-4657-9373-436f6e74726f,-*%
%TF.SameCoordinates,Original*%
%TF.FileFunction,Drillmap*%
%TF.FilePolarity,Positive*%
%FSLAX45Y45*%
G04 Gerber Fmt 4.5, Leading zero omitted, Abs format (unit mm)*
G04 Created by KiCad (PCBNEW (6.0.7)) date 2022-09-17 11:26:50*
%MOMM*%
%LPD*%
G01*
G04 APERTURE LIST*
%ADD10C,0.100000*%
%ADD11C,0.200000*%
%ADD12C,0.040000*%
%ADD13C,0.075000*%
%ADD14C,0.080000*%
%ADD15C,0.102000*%
%ADD16C,0.110000*%
G04 APERTURE END LIST*
D10*
X11938000Y-6096000D02*
X4445000Y-6096000D01*
X4445000Y-6096000D02*
X4445000Y-11557000D01*
X4445000Y-11557000D02*
X11938000Y-11557000D01*
X11938000Y-11557000D02*
X11938000Y-6096000D01*
D11*
D12*
X5060000Y-10140000D02*
X5100000Y-10180000D01*
X5100000Y-10140000D02*
X5060000Y-10180000D01*
X5822000Y-10775000D02*
X5862000Y-10815000D01*
X5862000Y-10775000D02*
X5822000Y-10815000D01*
X6203000Y-11029000D02*
X6243000Y-11069000D01*
X6243000Y-11029000D02*
X6203000Y-11069000D01*
X7346000Y-6965000D02*
X7386000Y-7005000D01*
X7386000Y-6965000D02*
X7346000Y-7005000D01*
X7727000Y-8298500D02*
X7767000Y-8338500D01*
X7767000Y-8298500D02*
X7727000Y-8338500D01*
X7727000Y-9124000D02*
X7767000Y-9164000D01*
X7767000Y-9124000D02*
X7727000Y-9164000D01*
X7854000Y-7727000D02*
X7894000Y-7767000D01*
X7894000Y-7727000D02*
X7854000Y-7767000D01*
X7981000Y-8298500D02*
X8021000Y-8338500D01*
X8021000Y-8298500D02*
X7981000Y-8338500D01*
X8235000Y-8108000D02*
X8275000Y-8148000D01*
X8275000Y-8108000D02*
X8235000Y-8148000D01*
X8362000Y-7727000D02*
X8402000Y-7767000D01*
X8402000Y-7727000D02*
X8362000Y-7767000D01*
X8362000Y-11156000D02*
X8402000Y-11196000D01*
X8402000Y-11156000D02*
X8362000Y-11196000D01*
X10267000Y-7981000D02*
X10307000Y-8021000D01*
X10307000Y-7981000D02*
X10267000Y-8021000D01*
X11029000Y-7600000D02*
X11069000Y-7640000D01*
X11069000Y-7600000D02*
X11029000Y-7640000D01*
D13*
X10578500Y-7747000D02*
G75*
G03*
X10578500Y-7747000I-37500J0D01*
G01*
X10578500Y-11049000D02*
G75*
G03*
X10578500Y-11049000I-37500J0D01*
G01*
X10705500Y-7747000D02*
G75*
G03*
X10705500Y-7747000I-37500J0D01*
G01*
X10705500Y-11049000D02*
G75*
G03*
X10705500Y-11049000I-37500J0D01*
G01*
X10832500Y-7747000D02*
G75*
G03*
X10832500Y-7747000I-37500J0D01*
G01*
X10832500Y-11049000D02*
G75*
G03*
X10832500Y-11049000I-37500J0D01*
G01*
X11467500Y-7747000D02*
G75*
G03*
X11467500Y-7747000I-37500J0D01*
G01*
X11467500Y-11049000D02*
G75*
G03*
X11467500Y-11049000I-37500J0D01*
G01*
X11594500Y-7747000D02*
G75*
G03*
X11594500Y-7747000I-37500J0D01*
G01*
X11594500Y-11049000D02*
G75*
G03*
X11594500Y-11049000I-37500J0D01*
G01*
X11721500Y-7747000D02*
G75*
G03*
X11721500Y-7747000I-37500J0D01*
G01*
X11721500Y-11049000D02*
G75*
G03*
X11721500Y-11049000I-37500J0D01*
G01*
D14*
X6096000Y-6565000D02*
X6096000Y-6645000D01*
X6056000Y-6605000D02*
X6136000Y-6605000D01*
X6096000Y-6819000D02*
X6096000Y-6899000D01*
X6056000Y-6859000D02*
X6136000Y-6859000D01*
X6096000Y-7073000D02*
X6096000Y-7153000D01*
X6056000Y-7113000D02*
X6136000Y-7113000D01*
X6096000Y-7327000D02*
X6096000Y-7407000D01*
X6056000Y-7367000D02*
X6136000Y-7367000D01*
X6096000Y-7961000D02*
X6096000Y-8041000D01*
X6056000Y-8001000D02*
X6136000Y-8001000D01*
X6096000Y-8469000D02*
X6096000Y-8549000D01*
X6056000Y-8509000D02*
X6136000Y-8509000D01*
X6604000Y-9485000D02*
X6604000Y-9565000D01*
X6564000Y-9525000D02*
X6644000Y-9525000D01*
X6604000Y-9739000D02*
X6604000Y-9819000D01*
X6564000Y-9779000D02*
X6644000Y-9779000D01*
X6604000Y-9993000D02*
X6604000Y-10073000D01*
X6564000Y-10033000D02*
X6644000Y-10033000D01*
X6604000Y-10247000D02*
X6604000Y-10327000D01*
X6564000Y-10287000D02*
X6644000Y-10287000D01*
X6604000Y-10501000D02*
X6604000Y-10581000D01*
X6564000Y-10541000D02*
X6644000Y-10541000D01*
X6604000Y-10755000D02*
X6604000Y-10835000D01*
X6564000Y-10795000D02*
X6644000Y-10795000D01*
X6604000Y-11009000D02*
X6604000Y-11089000D01*
X6564000Y-11049000D02*
X6644000Y-11049000D01*
X6858000Y-6565000D02*
X6858000Y-6645000D01*
X6818000Y-6605000D02*
X6898000Y-6605000D01*
X6858000Y-6819000D02*
X6858000Y-6899000D01*
X6818000Y-6859000D02*
X6898000Y-6859000D01*
X6858000Y-7073000D02*
X6858000Y-7153000D01*
X6818000Y-7113000D02*
X6898000Y-7113000D01*
X6858000Y-7327000D02*
X6858000Y-7407000D01*
X6818000Y-7367000D02*
X6898000Y-7367000D01*
X6858000Y-7961000D02*
X6858000Y-8041000D01*
X6818000Y-8001000D02*
X6898000Y-8001000D01*
X6858000Y-8469000D02*
X6858000Y-8549000D01*
X6818000Y-8509000D02*
X6898000Y-8509000D01*
X7366000Y-9485000D02*
X7366000Y-9565000D01*
X7326000Y-9525000D02*
X7406000Y-9525000D01*
X7366000Y-9739000D02*
X7366000Y-9819000D01*
X7326000Y-9779000D02*
X7406000Y-9779000D01*
X7366000Y-9993000D02*
X7366000Y-10073000D01*
X7326000Y-10033000D02*
X7406000Y-10033000D01*
X7366000Y-10247000D02*
X7366000Y-10327000D01*
X7326000Y-10287000D02*
X7406000Y-10287000D01*
X7366000Y-10501000D02*
X7366000Y-10581000D01*
X7326000Y-10541000D02*
X7406000Y-10541000D01*
X7366000Y-10755000D02*
X7366000Y-10835000D01*
X7326000Y-10795000D02*
X7406000Y-10795000D01*
X7366000Y-11009000D02*
X7366000Y-11089000D01*
X7326000Y-11049000D02*
X7406000Y-11049000D01*
X8636000Y-8469000D02*
X8636000Y-8549000D01*
X8596000Y-8509000D02*
X8676000Y-8509000D01*
X8636000Y-8723000D02*
X8636000Y-8803000D01*
X8596000Y-8763000D02*
X8676000Y-8763000D01*
X8636000Y-8977000D02*
X8636000Y-9057000D01*
X8596000Y-9017000D02*
X8676000Y-9017000D01*
X8636000Y-9231000D02*
X8636000Y-9311000D01*
X8596000Y-9271000D02*
X8676000Y-9271000D01*
X8636000Y-9485000D02*
X8636000Y-9565000D01*
X8596000Y-9525000D02*
X8676000Y-9525000D01*
X8636000Y-9739000D02*
X8636000Y-9819000D01*
X8596000Y-9779000D02*
X8676000Y-9779000D01*
X8636000Y-9993000D02*
X8636000Y-10073000D01*
X8596000Y-10033000D02*
X8676000Y-10033000D01*
X8636000Y-10247000D02*
X8636000Y-10327000D01*
X8596000Y-10287000D02*
X8676000Y-10287000D01*
X9398000Y-8469000D02*
X9398000Y-8549000D01*
X9358000Y-8509000D02*
X9438000Y-8509000D01*
X9398000Y-8723000D02*
X9398000Y-8803000D01*
X9358000Y-8763000D02*
X9438000Y-8763000D01*
X9398000Y-8977000D02*
X9398000Y-9057000D01*
X9358000Y-9017000D02*
X9438000Y-9017000D01*
X9398000Y-9231000D02*
X9398000Y-9311000D01*
X9358000Y-9271000D02*
X9438000Y-9271000D01*
X9398000Y-9485000D02*
X9398000Y-9565000D01*
X9358000Y-9525000D02*
X9438000Y-9525000D01*
X9398000Y-9739000D02*
X9398000Y-9819000D01*
X9358000Y-9779000D02*
X9438000Y-9779000D01*
X9398000Y-9993000D02*
X9398000Y-10073000D01*
X9358000Y-10033000D02*
X9438000Y-10033000D01*
X9398000Y-10247000D02*
X9398000Y-10327000D01*
X9358000Y-10287000D02*
X9438000Y-10287000D01*
D10*
X11188356Y-6657856D02*
X11188356Y-6587144D01*
X11117644Y-6587144D01*
X11117644Y-6657856D01*
X11188356Y-6657856D01*
X11188356Y-6957856D02*
X11188356Y-6887144D01*
X11117644Y-6887144D01*
X11117644Y-6957856D01*
X11188356Y-6957856D01*
X11273856Y-9260356D02*
X11273856Y-9189644D01*
X11203144Y-9189644D01*
X11203144Y-9260356D01*
X11273856Y-9260356D01*
X11273856Y-9560356D02*
X11273856Y-9489644D01*
X11203144Y-9489644D01*
X11203144Y-9560356D01*
X11273856Y-9560356D01*
X11273856Y-9860356D02*
X11273856Y-9789644D01*
X11203144Y-9789644D01*
X11203144Y-9860356D01*
X11273856Y-9860356D01*
X11488356Y-6657856D02*
X11488356Y-6587144D01*
X11417644Y-6587144D01*
X11417644Y-6657856D01*
X11488356Y-6657856D01*
X11488356Y-6957856D02*
X11488356Y-6887144D01*
X11417644Y-6887144D01*
X11417644Y-6957856D01*
X11488356Y-6957856D01*
X11573856Y-9260356D02*
X11573856Y-9189644D01*
X11503144Y-9189644D01*
X11503144Y-9260356D01*
X11573856Y-9260356D01*
X11573856Y-9560356D02*
X11573856Y-9489644D01*
X11503144Y-9489644D01*
X11503144Y-9560356D01*
X11573856Y-9560356D01*
X11573856Y-9860356D02*
X11573856Y-9789644D01*
X11503144Y-9789644D01*
X11503144Y-9860356D01*
X11573856Y-9860356D01*
D15*
X5080000Y-8560000D02*
X5131000Y-8509000D01*
X5080000Y-8458000D01*
X5029000Y-8509000D01*
X5080000Y-8560000D01*
X5080000Y-8860000D02*
X5131000Y-8809000D01*
X5080000Y-8758000D01*
X5029000Y-8809000D01*
X5080000Y-8860000D01*
X5080000Y-9160000D02*
X5131000Y-9109000D01*
X5080000Y-9058000D01*
X5029000Y-9109000D01*
X5080000Y-9160000D01*
X5080000Y-9460000D02*
X5131000Y-9409000D01*
X5080000Y-9358000D01*
X5029000Y-9409000D01*
X5080000Y-9460000D01*
X5121500Y-6863000D02*
X5172500Y-6812000D01*
X5121500Y-6761000D01*
X5070500Y-6812000D01*
X5121500Y-6863000D01*
X5121500Y-7163000D02*
X5172500Y-7112000D01*
X5121500Y-7061000D01*
X5070500Y-7112000D01*
X5121500Y-7163000D01*
X5121500Y-7463000D02*
X5172500Y-7412000D01*
X5121500Y-7361000D01*
X5070500Y-7412000D01*
X5121500Y-7463000D01*
D16*
X7819000Y-6581500D02*
X7929000Y-6691500D01*
X7929000Y-6581500D02*
X7819000Y-6691500D01*
X7929000Y-6636500D02*
G75*
G03*
X7929000Y-6636500I-55000J0D01*
G01*
X8073000Y-6581500D02*
X8183000Y-6691500D01*
X8183000Y-6581500D02*
X8073000Y-6691500D01*
X8183000Y-6636500D02*
G75*
G03*
X8183000Y-6636500I-55000J0D01*
G01*
X8327000Y-6581500D02*
X8437000Y-6691500D01*
X8437000Y-6581500D02*
X8327000Y-6691500D01*
X8437000Y-6636500D02*
G75*
G03*
X8437000Y-6636500I-55000J0D01*
G01*
D11*
X9133000Y-6631000D02*
X9333000Y-6831000D01*
X9333000Y-6631000D02*
X9133000Y-6831000D01*
X9233000Y-6631000D02*
X9233000Y-6831000D01*
X9133000Y-6731000D02*
X9333000Y-6731000D01*
X9308000Y-6631000D02*
X9158000Y-6631000D01*
X9308000Y-6831000D02*
X9158000Y-6831000D01*
X9158000Y-6631000D02*
G75*
G03*
X9158000Y-6831000I0J-100000D01*
G01*
X9308000Y-6831000D02*
G75*
G03*
X9308000Y-6631000I0J100000D01*
G01*
X9933000Y-6631000D02*
X10133000Y-6831000D01*
X10133000Y-6631000D02*
X9933000Y-6831000D01*
X10033000Y-6631000D02*
X10033000Y-6831000D01*
X9933000Y-6731000D02*
X10133000Y-6731000D01*
X10108000Y-6631000D02*
X9958000Y-6631000D01*
X10108000Y-6831000D02*
X9958000Y-6831000D01*
X9958000Y-6631000D02*
G75*
G03*
X9958000Y-6831000I0J-100000D01*
G01*
X10108000Y-6831000D02*
G75*
G03*
X10108000Y-6631000I0J100000D01*
G01*
X4697619Y-11872476D02*
X4697619Y-11672476D01*
X4745238Y-11672476D01*
X4773810Y-11682000D01*
X4792857Y-11701048D01*
X4802381Y-11720095D01*
X4811905Y-11758190D01*
X4811905Y-11786762D01*
X4802381Y-11824857D01*
X4792857Y-11843905D01*
X4773810Y-11862952D01*
X4745238Y-11872476D01*
X4697619Y-11872476D01*
X4897619Y-11872476D02*
X4897619Y-11739143D01*
X4897619Y-11777238D02*
X4907143Y-11758190D01*
X4916667Y-11748667D01*
X4935714Y-11739143D01*
X4954762Y-11739143D01*
X5021429Y-11872476D02*
X5021429Y-11739143D01*
X5021429Y-11672476D02*
X5011905Y-11682000D01*
X5021429Y-11691524D01*
X5030952Y-11682000D01*
X5021429Y-11672476D01*
X5021429Y-11691524D01*
X5145238Y-11872476D02*
X5126190Y-11862952D01*
X5116667Y-11843905D01*
X5116667Y-11672476D01*
X5250000Y-11872476D02*
X5230952Y-11862952D01*
X5221429Y-11843905D01*
X5221429Y-11672476D01*
X5478571Y-11872476D02*
X5478571Y-11672476D01*
X5545238Y-11815333D01*
X5611905Y-11672476D01*
X5611905Y-11872476D01*
X5792857Y-11872476D02*
X5792857Y-11767714D01*
X5783333Y-11748667D01*
X5764286Y-11739143D01*
X5726190Y-11739143D01*
X5707143Y-11748667D01*
X5792857Y-11862952D02*
X5773809Y-11872476D01*
X5726190Y-11872476D01*
X5707143Y-11862952D01*
X5697619Y-11843905D01*
X5697619Y-11824857D01*
X5707143Y-11805809D01*
X5726190Y-11796286D01*
X5773809Y-11796286D01*
X5792857Y-11786762D01*
X5888095Y-11739143D02*
X5888095Y-11939143D01*
X5888095Y-11748667D02*
X5907143Y-11739143D01*
X5945238Y-11739143D01*
X5964286Y-11748667D01*
X5973809Y-11758190D01*
X5983333Y-11777238D01*
X5983333Y-11834381D01*
X5973809Y-11853428D01*
X5964286Y-11862952D01*
X5945238Y-11872476D01*
X5907143Y-11872476D01*
X5888095Y-11862952D01*
X6069048Y-11853428D02*
X6078571Y-11862952D01*
X6069048Y-11872476D01*
X6059524Y-11862952D01*
X6069048Y-11853428D01*
X6069048Y-11872476D01*
X6069048Y-11748667D02*
X6078571Y-11758190D01*
X6069048Y-11767714D01*
X6059524Y-11758190D01*
X6069048Y-11748667D01*
X6069048Y-11767714D01*
D12*
X4400000Y-12182000D02*
X4440000Y-12222000D01*
X4440000Y-12182000D02*
X4400000Y-12222000D01*
D11*
X4735714Y-12092476D02*
X4754762Y-12092476D01*
X4773810Y-12102000D01*
X4783333Y-12111524D01*
X4792857Y-12130571D01*
X4802381Y-12168667D01*
X4802381Y-12216286D01*
X4792857Y-12254381D01*
X4783333Y-12273428D01*
X4773810Y-12282952D01*
X4754762Y-12292476D01*
X4735714Y-12292476D01*
X4716667Y-12282952D01*
X4707143Y-12273428D01*
X4697619Y-12254381D01*
X4688095Y-12216286D01*
X4688095Y-12168667D01*
X4697619Y-12130571D01*
X4707143Y-12111524D01*
X4716667Y-12102000D01*
X4735714Y-12092476D01*
X4888095Y-12273428D02*
X4897619Y-12282952D01*
X4888095Y-12292476D01*
X4878571Y-12282952D01*
X4888095Y-12273428D01*
X4888095Y-12292476D01*
X5069048Y-12159143D02*
X5069048Y-12292476D01*
X5021429Y-12082952D02*
X4973810Y-12225809D01*
X5097619Y-12225809D01*
X5211905Y-12092476D02*
X5230952Y-12092476D01*
X5250000Y-12102000D01*
X5259524Y-12111524D01*
X5269048Y-12130571D01*
X5278571Y-12168667D01*
X5278571Y-12216286D01*
X5269048Y-12254381D01*
X5259524Y-12273428D01*
X5250000Y-12282952D01*
X5230952Y-12292476D01*
X5211905Y-12292476D01*
X5192857Y-12282952D01*
X5183333Y-12273428D01*
X5173810Y-12254381D01*
X5164286Y-12216286D01*
X5164286Y-12168667D01*
X5173810Y-12130571D01*
X5183333Y-12111524D01*
X5192857Y-12102000D01*
X5211905Y-12092476D01*
X5402381Y-12092476D02*
X5421429Y-12092476D01*
X5440476Y-12102000D01*
X5450000Y-12111524D01*
X5459524Y-12130571D01*
X5469048Y-12168667D01*
X5469048Y-12216286D01*
X5459524Y-12254381D01*
X5450000Y-12273428D01*
X5440476Y-12282952D01*
X5421429Y-12292476D01*
X5402381Y-12292476D01*
X5383333Y-12282952D01*
X5373810Y-12273428D01*
X5364286Y-12254381D01*
X5354762Y-12216286D01*
X5354762Y-12168667D01*
X5364286Y-12130571D01*
X5373810Y-12111524D01*
X5383333Y-12102000D01*
X5402381Y-12092476D01*
X5554762Y-12292476D02*
X5554762Y-12159143D01*
X5554762Y-12178190D02*
X5564286Y-12168667D01*
X5583333Y-12159143D01*
X5611905Y-12159143D01*
X5630952Y-12168667D01*
X5640476Y-12187714D01*
X5640476Y-12292476D01*
X5640476Y-12187714D02*
X5650000Y-12168667D01*
X5669048Y-12159143D01*
X5697619Y-12159143D01*
X5716667Y-12168667D01*
X5726190Y-12187714D01*
X5726190Y-12292476D01*
X5821428Y-12292476D02*
X5821428Y-12159143D01*
X5821428Y-12178190D02*
X5830952Y-12168667D01*
X5850000Y-12159143D01*
X5878571Y-12159143D01*
X5897619Y-12168667D01*
X5907143Y-12187714D01*
X5907143Y-12292476D01*
X5907143Y-12187714D02*
X5916667Y-12168667D01*
X5935714Y-12159143D01*
X5964286Y-12159143D01*
X5983333Y-12168667D01*
X5992857Y-12187714D01*
X5992857Y-12292476D01*
X6383333Y-12082952D02*
X6211905Y-12340095D01*
X6640476Y-12092476D02*
X6659524Y-12092476D01*
X6678571Y-12102000D01*
X6688095Y-12111524D01*
X6697619Y-12130571D01*
X6707143Y-12168667D01*
X6707143Y-12216286D01*
X6697619Y-12254381D01*
X6688095Y-12273428D01*
X6678571Y-12282952D01*
X6659524Y-12292476D01*
X6640476Y-12292476D01*
X6621428Y-12282952D01*
X6611905Y-12273428D01*
X6602381Y-12254381D01*
X6592857Y-12216286D01*
X6592857Y-12168667D01*
X6602381Y-12130571D01*
X6611905Y-12111524D01*
X6621428Y-12102000D01*
X6640476Y-12092476D01*
X6792857Y-12273428D02*
X6802381Y-12282952D01*
X6792857Y-12292476D01*
X6783333Y-12282952D01*
X6792857Y-12273428D01*
X6792857Y-12292476D01*
X6926190Y-12092476D02*
X6945238Y-12092476D01*
X6964286Y-12102000D01*
X6973809Y-12111524D01*
X6983333Y-12130571D01*
X6992857Y-12168667D01*
X6992857Y-12216286D01*
X6983333Y-12254381D01*
X6973809Y-12273428D01*
X6964286Y-12282952D01*
X6945238Y-12292476D01*
X6926190Y-12292476D01*
X6907143Y-12282952D01*
X6897619Y-12273428D01*
X6888095Y-12254381D01*
X6878571Y-12216286D01*
X6878571Y-12168667D01*
X6888095Y-12130571D01*
X6897619Y-12111524D01*
X6907143Y-12102000D01*
X6926190Y-12092476D01*
X7183333Y-12292476D02*
X7069048Y-12292476D01*
X7126190Y-12292476D02*
X7126190Y-12092476D01*
X7107143Y-12121048D01*
X7088095Y-12140095D01*
X7069048Y-12149619D01*
X7364286Y-12092476D02*
X7269048Y-12092476D01*
X7259524Y-12187714D01*
X7269048Y-12178190D01*
X7288095Y-12168667D01*
X7335714Y-12168667D01*
X7354762Y-12178190D01*
X7364286Y-12187714D01*
X7373809Y-12206762D01*
X7373809Y-12254381D01*
X7364286Y-12273428D01*
X7354762Y-12282952D01*
X7335714Y-12292476D01*
X7288095Y-12292476D01*
X7269048Y-12282952D01*
X7259524Y-12273428D01*
X7440476Y-12092476D02*
X7573809Y-12092476D01*
X7488095Y-12292476D01*
X7640476Y-12092476D02*
X7640476Y-12130571D01*
X7716667Y-12092476D02*
X7716667Y-12130571D01*
X8011905Y-12368667D02*
X8002381Y-12359143D01*
X7983333Y-12330571D01*
X7973809Y-12311524D01*
X7964286Y-12282952D01*
X7954762Y-12235333D01*
X7954762Y-12197238D01*
X7964286Y-12149619D01*
X7973809Y-12121048D01*
X7983333Y-12102000D01*
X8002381Y-12073428D01*
X8011905Y-12063905D01*
X8192857Y-12292476D02*
X8078571Y-12292476D01*
X8135714Y-12292476D02*
X8135714Y-12092476D01*
X8116667Y-12121048D01*
X8097619Y-12140095D01*
X8078571Y-12149619D01*
X8259524Y-12092476D02*
X8383333Y-12092476D01*
X8316667Y-12168667D01*
X8345238Y-12168667D01*
X8364286Y-12178190D01*
X8373809Y-12187714D01*
X8383333Y-12206762D01*
X8383333Y-12254381D01*
X8373809Y-12273428D01*
X8364286Y-12282952D01*
X8345238Y-12292476D01*
X8288095Y-12292476D01*
X8269048Y-12282952D01*
X8259524Y-12273428D01*
X8621429Y-12292476D02*
X8621429Y-12092476D01*
X8707143Y-12292476D02*
X8707143Y-12187714D01*
X8697619Y-12168667D01*
X8678571Y-12159143D01*
X8650000Y-12159143D01*
X8630952Y-12168667D01*
X8621429Y-12178190D01*
X8830952Y-12292476D02*
X8811905Y-12282952D01*
X8802381Y-12273428D01*
X8792857Y-12254381D01*
X8792857Y-12197238D01*
X8802381Y-12178190D01*
X8811905Y-12168667D01*
X8830952Y-12159143D01*
X8859524Y-12159143D01*
X8878571Y-12168667D01*
X8888095Y-12178190D01*
X8897619Y-12197238D01*
X8897619Y-12254381D01*
X8888095Y-12273428D01*
X8878571Y-12282952D01*
X8859524Y-12292476D01*
X8830952Y-12292476D01*
X9011905Y-12292476D02*
X8992857Y-12282952D01*
X8983333Y-12263905D01*
X8983333Y-12092476D01*
X9164286Y-12282952D02*
X9145238Y-12292476D01*
X9107143Y-12292476D01*
X9088095Y-12282952D01*
X9078571Y-12263905D01*
X9078571Y-12187714D01*
X9088095Y-12168667D01*
X9107143Y-12159143D01*
X9145238Y-12159143D01*
X9164286Y-12168667D01*
X9173810Y-12187714D01*
X9173810Y-12206762D01*
X9078571Y-12225809D01*
X9250000Y-12282952D02*
X9269048Y-12292476D01*
X9307143Y-12292476D01*
X9326190Y-12282952D01*
X9335714Y-12263905D01*
X9335714Y-12254381D01*
X9326190Y-12235333D01*
X9307143Y-12225809D01*
X9278571Y-12225809D01*
X9259524Y-12216286D01*
X9250000Y-12197238D01*
X9250000Y-12187714D01*
X9259524Y-12168667D01*
X9278571Y-12159143D01*
X9307143Y-12159143D01*
X9326190Y-12168667D01*
X9402381Y-12368667D02*
X9411905Y-12359143D01*
X9430952Y-12330571D01*
X9440476Y-12311524D01*
X9450000Y-12282952D01*
X9459524Y-12235333D01*
X9459524Y-12197238D01*
X9450000Y-12149619D01*
X9440476Y-12121048D01*
X9430952Y-12102000D01*
X9411905Y-12073428D01*
X9402381Y-12063905D01*
D13*
X4440000Y-12466000D02*
G75*
G03*
X4440000Y-12466000I-37500J0D01*
G01*
D11*
X4735714Y-12356476D02*
X4754762Y-12356476D01*
X4773810Y-12366000D01*
X4783333Y-12375524D01*
X4792857Y-12394571D01*
X4802381Y-12432667D01*
X4802381Y-12480286D01*
X4792857Y-12518381D01*
X4783333Y-12537428D01*
X4773810Y-12546952D01*
X4754762Y-12556476D01*
X4735714Y-12556476D01*
X4716667Y-12546952D01*
X4707143Y-12537428D01*
X4697619Y-12518381D01*
X4688095Y-12480286D01*
X4688095Y-12432667D01*
X4697619Y-12394571D01*
X4707143Y-12375524D01*
X4716667Y-12366000D01*
X4735714Y-12356476D01*
X4888095Y-12537428D02*
X4897619Y-12546952D01*
X4888095Y-12556476D01*
X4878571Y-12546952D01*
X4888095Y-12537428D01*
X4888095Y-12556476D01*
X4964286Y-12356476D02*
X5097619Y-12356476D01*
X5011905Y-12556476D01*
X5269048Y-12356476D02*
X5173810Y-12356476D01*
X5164286Y-12451714D01*
X5173810Y-12442190D01*
X5192857Y-12432667D01*
X5240476Y-12432667D01*
X5259524Y-12442190D01*
X5269048Y-12451714D01*
X5278571Y-12470762D01*
X5278571Y-12518381D01*
X5269048Y-12537428D01*
X5259524Y-12546952D01*
X5240476Y-12556476D01*
X5192857Y-12556476D01*
X5173810Y-12546952D01*
X5164286Y-12537428D01*
X5402381Y-12356476D02*
X5421429Y-12356476D01*
X5440476Y-12366000D01*
X5450000Y-12375524D01*
X5459524Y-12394571D01*
X5469048Y-12432667D01*
X5469048Y-12480286D01*
X5459524Y-12518381D01*
X5450000Y-12537428D01*
X5440476Y-12546952D01*
X5421429Y-12556476D01*
X5402381Y-12556476D01*
X5383333Y-12546952D01*
X5373810Y-12537428D01*
X5364286Y-12518381D01*
X5354762Y-12480286D01*
X5354762Y-12432667D01*
X5364286Y-12394571D01*
X5373810Y-12375524D01*
X5383333Y-12366000D01*
X5402381Y-12356476D01*
X5554762Y-12556476D02*
X5554762Y-12423143D01*
X5554762Y-12442190D02*
X5564286Y-12432667D01*
X5583333Y-12423143D01*
X5611905Y-12423143D01*
X5630952Y-12432667D01*
X5640476Y-12451714D01*
X5640476Y-12556476D01*
X5640476Y-12451714D02*
X5650000Y-12432667D01*
X5669048Y-12423143D01*
X5697619Y-12423143D01*
X5716667Y-12432667D01*
X5726190Y-12451714D01*
X5726190Y-12556476D01*
X5821428Y-12556476D02*
X5821428Y-12423143D01*
X5821428Y-12442190D02*
X5830952Y-12432667D01*
X5850000Y-12423143D01*
X5878571Y-12423143D01*
X5897619Y-12432667D01*
X5907143Y-12451714D01*
X5907143Y-12556476D01*
X5907143Y-12451714D02*
X5916667Y-12432667D01*
X5935714Y-12423143D01*
X5964286Y-12423143D01*
X5983333Y-12432667D01*
X5992857Y-12451714D01*
X5992857Y-12556476D01*
X6383333Y-12346952D02*
X6211905Y-12604095D01*
X6640476Y-12356476D02*
X6659524Y-12356476D01*
X6678571Y-12366000D01*
X6688095Y-12375524D01*
X6697619Y-12394571D01*
X6707143Y-12432667D01*
X6707143Y-12480286D01*
X6697619Y-12518381D01*
X6688095Y-12537428D01*
X6678571Y-12546952D01*
X6659524Y-12556476D01*
X6640476Y-12556476D01*
X6621428Y-12546952D01*
X6611905Y-12537428D01*
X6602381Y-12518381D01*
X6592857Y-12480286D01*
X6592857Y-12432667D01*
X6602381Y-12394571D01*
X6611905Y-12375524D01*
X6621428Y-12366000D01*
X6640476Y-12356476D01*
X6792857Y-12537428D02*
X6802381Y-12546952D01*
X6792857Y-12556476D01*
X6783333Y-12546952D01*
X6792857Y-12537428D01*
X6792857Y-12556476D01*
X6926190Y-12356476D02*
X6945238Y-12356476D01*
X6964286Y-12366000D01*
X6973809Y-12375524D01*
X6983333Y-12394571D01*
X6992857Y-12432667D01*
X6992857Y-12480286D01*
X6983333Y-12518381D01*
X6973809Y-12537428D01*
X6964286Y-12546952D01*
X6945238Y-12556476D01*
X6926190Y-12556476D01*
X6907143Y-12546952D01*
X6897619Y-12537428D01*
X6888095Y-12518381D01*
X6878571Y-12480286D01*
X6878571Y-12432667D01*
X6888095Y-12394571D01*
X6897619Y-12375524D01*
X6907143Y-12366000D01*
X6926190Y-12356476D01*
X7069048Y-12375524D02*
X7078571Y-12366000D01*
X7097619Y-12356476D01*
X7145238Y-12356476D01*
X7164286Y-12366000D01*
X7173809Y-12375524D01*
X7183333Y-12394571D01*
X7183333Y-12413619D01*
X7173809Y-12442190D01*
X7059524Y-12556476D01*
X7183333Y-12556476D01*
X7278571Y-12556476D02*
X7316667Y-12556476D01*
X7335714Y-12546952D01*
X7345238Y-12537428D01*
X7364286Y-12508857D01*
X7373809Y-12470762D01*
X7373809Y-12394571D01*
X7364286Y-12375524D01*
X7354762Y-12366000D01*
X7335714Y-12356476D01*
X7297619Y-12356476D01*
X7278571Y-12366000D01*
X7269048Y-12375524D01*
X7259524Y-12394571D01*
X7259524Y-12442190D01*
X7269048Y-12461238D01*
X7278571Y-12470762D01*
X7297619Y-12480286D01*
X7335714Y-12480286D01*
X7354762Y-12470762D01*
X7364286Y-12461238D01*
X7373809Y-12442190D01*
X7554762Y-12356476D02*
X7459524Y-12356476D01*
X7450000Y-12451714D01*
X7459524Y-12442190D01*
X7478571Y-12432667D01*
X7526190Y-12432667D01*
X7545238Y-12442190D01*
X7554762Y-12451714D01*
X7564286Y-12470762D01*
X7564286Y-12518381D01*
X7554762Y-12537428D01*
X7545238Y-12546952D01*
X7526190Y-12556476D01*
X7478571Y-12556476D01*
X7459524Y-12546952D01*
X7450000Y-12537428D01*
X7640476Y-12356476D02*
X7640476Y-12394571D01*
X7716667Y-12356476D02*
X7716667Y-12394571D01*
X8011905Y-12632667D02*
X8002381Y-12623143D01*
X7983333Y-12594571D01*
X7973809Y-12575524D01*
X7964286Y-12546952D01*
X7954762Y-12499333D01*
X7954762Y-12461238D01*
X7964286Y-12413619D01*
X7973809Y-12385048D01*
X7983333Y-12366000D01*
X8002381Y-12337428D01*
X8011905Y-12327905D01*
X8192857Y-12556476D02*
X8078571Y-12556476D01*
X8135714Y-12556476D02*
X8135714Y-12356476D01*
X8116667Y-12385048D01*
X8097619Y-12404095D01*
X8078571Y-12413619D01*
X8269048Y-12375524D02*
X8278571Y-12366000D01*
X8297619Y-12356476D01*
X8345238Y-12356476D01*
X8364286Y-12366000D01*
X8373809Y-12375524D01*
X8383333Y-12394571D01*
X8383333Y-12413619D01*
X8373809Y-12442190D01*
X8259524Y-12556476D01*
X8383333Y-12556476D01*
X8621429Y-12556476D02*
X8621429Y-12356476D01*
X8707143Y-12556476D02*
X8707143Y-12451714D01*
X8697619Y-12432667D01*
X8678571Y-12423143D01*
X8650000Y-12423143D01*
X8630952Y-12432667D01*
X8621429Y-12442190D01*
X8830952Y-12556476D02*
X8811905Y-12546952D01*
X8802381Y-12537428D01*
X8792857Y-12518381D01*
X8792857Y-12461238D01*
X8802381Y-12442190D01*
X8811905Y-12432667D01*
X8830952Y-12423143D01*
X8859524Y-12423143D01*
X8878571Y-12432667D01*
X8888095Y-12442190D01*
X8897619Y-12461238D01*
X8897619Y-12518381D01*
X8888095Y-12537428D01*
X8878571Y-12546952D01*
X8859524Y-12556476D01*
X8830952Y-12556476D01*
X9011905Y-12556476D02*
X8992857Y-12546952D01*
X8983333Y-12527905D01*
X8983333Y-12356476D01*
X9164286Y-12546952D02*
X9145238Y-12556476D01*
X9107143Y-12556476D01*
X9088095Y-12546952D01*
X9078571Y-12527905D01*
X9078571Y-12451714D01*
X9088095Y-12432667D01*
X9107143Y-12423143D01*
X9145238Y-12423143D01*
X9164286Y-12432667D01*
X9173810Y-12451714D01*
X9173810Y-12470762D01*
X9078571Y-12489809D01*
X9250000Y-12546952D02*
X9269048Y-12556476D01*
X9307143Y-12556476D01*
X9326190Y-12546952D01*
X9335714Y-12527905D01*
X9335714Y-12518381D01*
X9326190Y-12499333D01*
X9307143Y-12489809D01*
X9278571Y-12489809D01*
X9259524Y-12480286D01*
X9250000Y-12461238D01*
X9250000Y-12451714D01*
X9259524Y-12432667D01*
X9278571Y-12423143D01*
X9307143Y-12423143D01*
X9326190Y-12432667D01*
X9402381Y-12632667D02*
X9411905Y-12623143D01*
X9430952Y-12594571D01*
X9440476Y-12575524D01*
X9450000Y-12546952D01*
X9459524Y-12499333D01*
X9459524Y-12461238D01*
X9450000Y-12413619D01*
X9440476Y-12385048D01*
X9430952Y-12366000D01*
X9411905Y-12337428D01*
X9402381Y-12327905D01*
D14*
X4400000Y-12690000D02*
X4400000Y-12770000D01*
X4360000Y-12730000D02*
X4440000Y-12730000D01*
D11*
X4735714Y-12620476D02*
X4754762Y-12620476D01*
X4773810Y-12630000D01*
X4783333Y-12639524D01*
X4792857Y-12658571D01*
X4802381Y-12696667D01*
X4802381Y-12744286D01*
X4792857Y-12782381D01*
X4783333Y-12801428D01*
X4773810Y-12810952D01*
X4754762Y-12820476D01*
X4735714Y-12820476D01*
X4716667Y-12810952D01*
X4707143Y-12801428D01*
X4697619Y-12782381D01*
X4688095Y-12744286D01*
X4688095Y-12696667D01*
X4697619Y-12658571D01*
X4707143Y-12639524D01*
X4716667Y-12630000D01*
X4735714Y-12620476D01*
X4888095Y-12801428D02*
X4897619Y-12810952D01*
X4888095Y-12820476D01*
X4878571Y-12810952D01*
X4888095Y-12801428D01*
X4888095Y-12820476D01*
X5011905Y-12706190D02*
X4992857Y-12696667D01*
X4983333Y-12687143D01*
X4973810Y-12668095D01*
X4973810Y-12658571D01*
X4983333Y-12639524D01*
X4992857Y-12630000D01*
X5011905Y-12620476D01*
X5050000Y-12620476D01*
X5069048Y-12630000D01*
X5078571Y-12639524D01*
X5088095Y-12658571D01*
X5088095Y-12668095D01*
X5078571Y-12687143D01*
X5069048Y-12696667D01*
X5050000Y-12706190D01*
X5011905Y-12706190D01*
X4992857Y-12715714D01*
X4983333Y-12725238D01*
X4973810Y-12744286D01*
X4973810Y-12782381D01*
X4983333Y-12801428D01*
X4992857Y-12810952D01*
X5011905Y-12820476D01*
X5050000Y-12820476D01*
X5069048Y-12810952D01*
X5078571Y-12801428D01*
X5088095Y-12782381D01*
X5088095Y-12744286D01*
X5078571Y-12725238D01*
X5069048Y-12715714D01*
X5050000Y-12706190D01*
X5211905Y-12620476D02*
X5230952Y-12620476D01*
X5250000Y-12630000D01*
X5259524Y-12639524D01*
X5269048Y-12658571D01*
X5278571Y-12696667D01*
X5278571Y-12744286D01*
X5269048Y-12782381D01*
X5259524Y-12801428D01*
X5250000Y-12810952D01*
X5230952Y-12820476D01*
X5211905Y-12820476D01*
X5192857Y-12810952D01*
X5183333Y-12801428D01*
X5173810Y-12782381D01*
X5164286Y-12744286D01*
X5164286Y-12696667D01*
X5173810Y-12658571D01*
X5183333Y-12639524D01*
X5192857Y-12630000D01*
X5211905Y-12620476D01*
X5402381Y-12620476D02*
X5421429Y-12620476D01*
X5440476Y-12630000D01*
X5450000Y-12639524D01*
X5459524Y-12658571D01*
X5469048Y-12696667D01*
X5469048Y-12744286D01*
X5459524Y-12782381D01*
X5450000Y-12801428D01*
X5440476Y-12810952D01*
X5421429Y-12820476D01*
X5402381Y-12820476D01*
X5383333Y-12810952D01*
X5373810Y-12801428D01*
X5364286Y-12782381D01*
X5354762Y-12744286D01*
X5354762Y-12696667D01*
X5364286Y-12658571D01*
X5373810Y-12639524D01*
X5383333Y-12630000D01*
X5402381Y-12620476D01*
X5554762Y-12820476D02*
X5554762Y-12687143D01*
X5554762Y-12706190D02*
X5564286Y-12696667D01*
X5583333Y-12687143D01*
X5611905Y-12687143D01*
X5630952Y-12696667D01*
X5640476Y-12715714D01*
X5640476Y-12820476D01*
X5640476Y-12715714D02*
X5650000Y-12696667D01*
X5669048Y-12687143D01*
X5697619Y-12687143D01*
X5716667Y-12696667D01*
X5726190Y-12715714D01*
X5726190Y-12820476D01*
X5821428Y-12820476D02*
X5821428Y-12687143D01*
X5821428Y-12706190D02*
X5830952Y-12696667D01*
X5850000Y-12687143D01*
X5878571Y-12687143D01*
X5897619Y-12696667D01*
X5907143Y-12715714D01*
X5907143Y-12820476D01*
X5907143Y-12715714D02*
X5916667Y-12696667D01*
X5935714Y-12687143D01*
X5964286Y-12687143D01*
X5983333Y-12696667D01*
X5992857Y-12715714D01*
X5992857Y-12820476D01*
X6383333Y-12610952D02*
X6211905Y-12868095D01*
X6640476Y-12620476D02*
X6659524Y-12620476D01*
X6678571Y-12630000D01*
X6688095Y-12639524D01*
X6697619Y-12658571D01*
X6707143Y-12696667D01*
X6707143Y-12744286D01*
X6697619Y-12782381D01*
X6688095Y-12801428D01*
X6678571Y-12810952D01*
X6659524Y-12820476D01*
X6640476Y-12820476D01*
X6621428Y-12810952D01*
X6611905Y-12801428D01*
X6602381Y-12782381D01*
X6592857Y-12744286D01*
X6592857Y-12696667D01*
X6602381Y-12658571D01*
X6611905Y-12639524D01*
X6621428Y-12630000D01*
X6640476Y-12620476D01*
X6792857Y-12801428D02*
X6802381Y-12810952D01*
X6792857Y-12820476D01*
X6783333Y-12810952D01*
X6792857Y-12801428D01*
X6792857Y-12820476D01*
X6926190Y-12620476D02*
X6945238Y-12620476D01*
X6964286Y-12630000D01*
X6973809Y-12639524D01*
X6983333Y-12658571D01*
X6992857Y-12696667D01*
X6992857Y-12744286D01*
X6983333Y-12782381D01*
X6973809Y-12801428D01*
X6964286Y-12810952D01*
X6945238Y-12820476D01*
X6926190Y-12820476D01*
X6907143Y-12810952D01*
X6897619Y-12801428D01*
X6888095Y-12782381D01*
X6878571Y-12744286D01*
X6878571Y-12696667D01*
X6888095Y-12658571D01*
X6897619Y-12639524D01*
X6907143Y-12630000D01*
X6926190Y-12620476D01*
X7059524Y-12620476D02*
X7183333Y-12620476D01*
X7116667Y-12696667D01*
X7145238Y-12696667D01*
X7164286Y-12706190D01*
X7173809Y-12715714D01*
X7183333Y-12734762D01*
X7183333Y-12782381D01*
X7173809Y-12801428D01*
X7164286Y-12810952D01*
X7145238Y-12820476D01*
X7088095Y-12820476D01*
X7069048Y-12810952D01*
X7059524Y-12801428D01*
X7373809Y-12820476D02*
X7259524Y-12820476D01*
X7316667Y-12820476D02*
X7316667Y-12620476D01*
X7297619Y-12649048D01*
X7278571Y-12668095D01*
X7259524Y-12677619D01*
X7554762Y-12620476D02*
X7459524Y-12620476D01*
X7450000Y-12715714D01*
X7459524Y-12706190D01*
X7478571Y-12696667D01*
X7526190Y-12696667D01*
X7545238Y-12706190D01*
X7554762Y-12715714D01*
X7564286Y-12734762D01*
X7564286Y-12782381D01*
X7554762Y-12801428D01*
X7545238Y-12810952D01*
X7526190Y-12820476D01*
X7478571Y-12820476D01*
X7459524Y-12810952D01*
X7450000Y-12801428D01*
X7640476Y-12620476D02*
X7640476Y-12658571D01*
X7716667Y-12620476D02*
X7716667Y-12658571D01*
X8011905Y-12896667D02*
X8002381Y-12887143D01*
X7983333Y-12858571D01*
X7973809Y-12839524D01*
X7964286Y-12810952D01*
X7954762Y-12763333D01*
X7954762Y-12725238D01*
X7964286Y-12677619D01*
X7973809Y-12649048D01*
X7983333Y-12630000D01*
X8002381Y-12601428D01*
X8011905Y-12591905D01*
X8173809Y-12687143D02*
X8173809Y-12820476D01*
X8126190Y-12610952D02*
X8078571Y-12753809D01*
X8202381Y-12753809D01*
X8269048Y-12639524D02*
X8278571Y-12630000D01*
X8297619Y-12620476D01*
X8345238Y-12620476D01*
X8364286Y-12630000D01*
X8373809Y-12639524D01*
X8383333Y-12658571D01*
X8383333Y-12677619D01*
X8373809Y-12706190D01*
X8259524Y-12820476D01*
X8383333Y-12820476D01*
X8621429Y-12820476D02*
X8621429Y-12620476D01*
X8707143Y-12820476D02*
X8707143Y-12715714D01*
X8697619Y-12696667D01*
X8678571Y-12687143D01*
X8650000Y-12687143D01*
X8630952Y-12696667D01*
X8621429Y-12706190D01*
X8830952Y-12820476D02*
X8811905Y-12810952D01*
X8802381Y-12801428D01*
X8792857Y-12782381D01*
X8792857Y-12725238D01*
X8802381Y-12706190D01*
X8811905Y-12696667D01*
X8830952Y-12687143D01*
X8859524Y-12687143D01*
X8878571Y-12696667D01*
X8888095Y-12706190D01*
X8897619Y-12725238D01*
X8897619Y-12782381D01*
X8888095Y-12801428D01*
X8878571Y-12810952D01*
X8859524Y-12820476D01*
X8830952Y-12820476D01*
X9011905Y-12820476D02*
X8992857Y-12810952D01*
X8983333Y-12791905D01*
X8983333Y-12620476D01*
X9164286Y-12810952D02*
X9145238Y-12820476D01*
X9107143Y-12820476D01*
X9088095Y-12810952D01*
X9078571Y-12791905D01*
X9078571Y-12715714D01*
X9088095Y-12696667D01*
X9107143Y-12687143D01*
X9145238Y-12687143D01*
X9164286Y-12696667D01*
X9173810Y-12715714D01*
X9173810Y-12734762D01*
X9078571Y-12753809D01*
X9250000Y-12810952D02*
X9269048Y-12820476D01*
X9307143Y-12820476D01*
X9326190Y-12810952D01*
X9335714Y-12791905D01*
X9335714Y-12782381D01*
X9326190Y-12763333D01*
X9307143Y-12753809D01*
X9278571Y-12753809D01*
X9259524Y-12744286D01*
X9250000Y-12725238D01*
X9250000Y-12715714D01*
X9259524Y-12696667D01*
X9278571Y-12687143D01*
X9307143Y-12687143D01*
X9326190Y-12696667D01*
X9402381Y-12896667D02*
X9411905Y-12887143D01*
X9430952Y-12858571D01*
X9440476Y-12839524D01*
X9450000Y-12810952D01*
X9459524Y-12763333D01*
X9459524Y-12725238D01*
X9450000Y-12677619D01*
X9440476Y-12649048D01*
X9430952Y-12630000D01*
X9411905Y-12601428D01*
X9402381Y-12591905D01*
D10*
X4425356Y-13029356D02*
X4425356Y-12958644D01*
X4354644Y-12958644D01*
X4354644Y-13029356D01*
X4425356Y-13029356D01*
D11*
X4802381Y-13084476D02*
X4688095Y-13084476D01*
X4745238Y-13084476D02*
X4745238Y-12884476D01*
X4726190Y-12913048D01*
X4707143Y-12932095D01*
X4688095Y-12941619D01*
X4888095Y-13065428D02*
X4897619Y-13074952D01*
X4888095Y-13084476D01*
X4878571Y-13074952D01*
X4888095Y-13065428D01*
X4888095Y-13084476D01*
X5021429Y-12884476D02*
X5040476Y-12884476D01*
X5059524Y-12894000D01*
X5069048Y-12903524D01*
X5078571Y-12922571D01*
X5088095Y-12960667D01*
X5088095Y-13008286D01*
X5078571Y-13046381D01*
X5069048Y-13065428D01*
X5059524Y-13074952D01*
X5040476Y-13084476D01*
X5021429Y-13084476D01*
X5002381Y-13074952D01*
X4992857Y-13065428D01*
X4983333Y-13046381D01*
X4973810Y-13008286D01*
X4973810Y-12960667D01*
X4983333Y-12922571D01*
X4992857Y-12903524D01*
X5002381Y-12894000D01*
X5021429Y-12884476D01*
X5211905Y-12884476D02*
X5230952Y-12884476D01*
X5250000Y-12894000D01*
X5259524Y-12903524D01*
X5269048Y-12922571D01*
X5278571Y-12960667D01*
X5278571Y-13008286D01*
X5269048Y-13046381D01*
X5259524Y-13065428D01*
X5250000Y-13074952D01*
X5230952Y-13084476D01*
X5211905Y-13084476D01*
X5192857Y-13074952D01*
X5183333Y-13065428D01*
X5173810Y-13046381D01*
X5164286Y-13008286D01*
X5164286Y-12960667D01*
X5173810Y-12922571D01*
X5183333Y-12903524D01*
X5192857Y-12894000D01*
X5211905Y-12884476D01*
X5402381Y-12884476D02*
X5421429Y-12884476D01*
X5440476Y-12894000D01*
X5450000Y-12903524D01*
X5459524Y-12922571D01*
X5469048Y-12960667D01*
X5469048Y-13008286D01*
X5459524Y-13046381D01*
X5450000Y-13065428D01*
X5440476Y-13074952D01*
X5421429Y-13084476D01*
X5402381Y-13084476D01*
X5383333Y-13074952D01*
X5373810Y-13065428D01*
X5364286Y-13046381D01*
X5354762Y-13008286D01*
X5354762Y-12960667D01*
X5364286Y-12922571D01*
X5373810Y-12903524D01*
X5383333Y-12894000D01*
X5402381Y-12884476D01*
X5554762Y-13084476D02*
X5554762Y-12951143D01*
X5554762Y-12970190D02*
X5564286Y-12960667D01*
X5583333Y-12951143D01*
X5611905Y-12951143D01*
X5630952Y-12960667D01*
X5640476Y-12979714D01*
X5640476Y-13084476D01*
X5640476Y-12979714D02*
X5650000Y-12960667D01*
X5669048Y-12951143D01*
X5697619Y-12951143D01*
X5716667Y-12960667D01*
X5726190Y-12979714D01*
X5726190Y-13084476D01*
X5821428Y-13084476D02*
X5821428Y-12951143D01*
X5821428Y-12970190D02*
X5830952Y-12960667D01*
X5850000Y-12951143D01*
X5878571Y-12951143D01*
X5897619Y-12960667D01*
X5907143Y-12979714D01*
X5907143Y-13084476D01*
X5907143Y-12979714D02*
X5916667Y-12960667D01*
X5935714Y-12951143D01*
X5964286Y-12951143D01*
X5983333Y-12960667D01*
X5992857Y-12979714D01*
X5992857Y-13084476D01*
X6383333Y-12874952D02*
X6211905Y-13132095D01*
X6640476Y-12884476D02*
X6659524Y-12884476D01*
X6678571Y-12894000D01*
X6688095Y-12903524D01*
X6697619Y-12922571D01*
X6707143Y-12960667D01*
X6707143Y-13008286D01*
X6697619Y-13046381D01*
X6688095Y-13065428D01*
X6678571Y-13074952D01*
X6659524Y-13084476D01*
X6640476Y-13084476D01*
X6621428Y-13074952D01*
X6611905Y-13065428D01*
X6602381Y-13046381D01*
X6592857Y-13008286D01*
X6592857Y-12960667D01*
X6602381Y-12922571D01*
X6611905Y-12903524D01*
X6621428Y-12894000D01*
X6640476Y-12884476D01*
X6792857Y-13065428D02*
X6802381Y-13074952D01*
X6792857Y-13084476D01*
X6783333Y-13074952D01*
X6792857Y-13065428D01*
X6792857Y-13084476D01*
X6926190Y-12884476D02*
X6945238Y-12884476D01*
X6964286Y-12894000D01*
X6973809Y-12903524D01*
X6983333Y-12922571D01*
X6992857Y-12960667D01*
X6992857Y-13008286D01*
X6983333Y-13046381D01*
X6973809Y-13065428D01*
X6964286Y-13074952D01*
X6945238Y-13084476D01*
X6926190Y-13084476D01*
X6907143Y-13074952D01*
X6897619Y-13065428D01*
X6888095Y-13046381D01*
X6878571Y-13008286D01*
X6878571Y-12960667D01*
X6888095Y-12922571D01*
X6897619Y-12903524D01*
X6907143Y-12894000D01*
X6926190Y-12884476D01*
X7059524Y-12884476D02*
X7183333Y-12884476D01*
X7116667Y-12960667D01*
X7145238Y-12960667D01*
X7164286Y-12970190D01*
X7173809Y-12979714D01*
X7183333Y-12998762D01*
X7183333Y-13046381D01*
X7173809Y-13065428D01*
X7164286Y-13074952D01*
X7145238Y-13084476D01*
X7088095Y-13084476D01*
X7069048Y-13074952D01*
X7059524Y-13065428D01*
X7278571Y-13084476D02*
X7316667Y-13084476D01*
X7335714Y-13074952D01*
X7345238Y-13065428D01*
X7364286Y-13036857D01*
X7373809Y-12998762D01*
X7373809Y-12922571D01*
X7364286Y-12903524D01*
X7354762Y-12894000D01*
X7335714Y-12884476D01*
X7297619Y-12884476D01*
X7278571Y-12894000D01*
X7269048Y-12903524D01*
X7259524Y-12922571D01*
X7259524Y-12970190D01*
X7269048Y-12989238D01*
X7278571Y-12998762D01*
X7297619Y-13008286D01*
X7335714Y-13008286D01*
X7354762Y-12998762D01*
X7364286Y-12989238D01*
X7373809Y-12970190D01*
X7545238Y-12951143D02*
X7545238Y-13084476D01*
X7497619Y-12874952D02*
X7450000Y-13017809D01*
X7573809Y-13017809D01*
X7640476Y-12884476D02*
X7640476Y-12922571D01*
X7716667Y-12884476D02*
X7716667Y-12922571D01*
X8011905Y-13160667D02*
X8002381Y-13151143D01*
X7983333Y-13122571D01*
X7973809Y-13103524D01*
X7964286Y-13074952D01*
X7954762Y-13027333D01*
X7954762Y-12989238D01*
X7964286Y-12941619D01*
X7973809Y-12913048D01*
X7983333Y-12894000D01*
X8002381Y-12865428D01*
X8011905Y-12855905D01*
X8192857Y-13084476D02*
X8078571Y-13084476D01*
X8135714Y-13084476D02*
X8135714Y-12884476D01*
X8116667Y-12913048D01*
X8097619Y-12932095D01*
X8078571Y-12941619D01*
X8316667Y-12884476D02*
X8335714Y-12884476D01*
X8354762Y-12894000D01*
X8364286Y-12903524D01*
X8373809Y-12922571D01*
X8383333Y-12960667D01*
X8383333Y-13008286D01*
X8373809Y-13046381D01*
X8364286Y-13065428D01*
X8354762Y-13074952D01*
X8335714Y-13084476D01*
X8316667Y-13084476D01*
X8297619Y-13074952D01*
X8288095Y-13065428D01*
X8278571Y-13046381D01*
X8269048Y-13008286D01*
X8269048Y-12960667D01*
X8278571Y-12922571D01*
X8288095Y-12903524D01*
X8297619Y-12894000D01*
X8316667Y-12884476D01*
X8621429Y-13084476D02*
X8621429Y-12884476D01*
X8707143Y-13084476D02*
X8707143Y-12979714D01*
X8697619Y-12960667D01*
X8678571Y-12951143D01*
X8650000Y-12951143D01*
X8630952Y-12960667D01*
X8621429Y-12970190D01*
X8830952Y-13084476D02*
X8811905Y-13074952D01*
X8802381Y-13065428D01*
X8792857Y-13046381D01*
X8792857Y-12989238D01*
X8802381Y-12970190D01*
X8811905Y-12960667D01*
X8830952Y-12951143D01*
X8859524Y-12951143D01*
X8878571Y-12960667D01*
X8888095Y-12970190D01*
X8897619Y-12989238D01*
X8897619Y-13046381D01*
X8888095Y-13065428D01*
X8878571Y-13074952D01*
X8859524Y-13084476D01*
X8830952Y-13084476D01*
X9011905Y-13084476D02*
X8992857Y-13074952D01*
X8983333Y-13055905D01*
X8983333Y-12884476D01*
X9164286Y-13074952D02*
X9145238Y-13084476D01*
X9107143Y-13084476D01*
X9088095Y-13074952D01*
X9078571Y-13055905D01*
X9078571Y-12979714D01*
X9088095Y-12960667D01*
X9107143Y-12951143D01*
X9145238Y-12951143D01*
X9164286Y-12960667D01*
X9173810Y-12979714D01*
X9173810Y-12998762D01*
X9078571Y-13017809D01*
X9250000Y-13074952D02*
X9269048Y-13084476D01*
X9307143Y-13084476D01*
X9326190Y-13074952D01*
X9335714Y-13055905D01*
X9335714Y-13046381D01*
X9326190Y-13027333D01*
X9307143Y-13017809D01*
X9278571Y-13017809D01*
X9259524Y-13008286D01*
X9250000Y-12989238D01*
X9250000Y-12979714D01*
X9259524Y-12960667D01*
X9278571Y-12951143D01*
X9307143Y-12951143D01*
X9326190Y-12960667D01*
X9402381Y-13160667D02*
X9411905Y-13151143D01*
X9430952Y-13122571D01*
X9440476Y-13103524D01*
X9450000Y-13074952D01*
X9459524Y-13027333D01*
X9459524Y-12989238D01*
X9450000Y-12941619D01*
X9440476Y-12913048D01*
X9430952Y-12894000D01*
X9411905Y-12865428D01*
X9402381Y-12855905D01*
D15*
X4389000Y-13309000D02*
X4440000Y-13258000D01*
X4389000Y-13207000D01*
X4338000Y-13258000D01*
X4389000Y-13309000D01*
D11*
X4802381Y-13348476D02*
X4688095Y-13348476D01*
X4745238Y-13348476D02*
X4745238Y-13148476D01*
X4726190Y-13177048D01*
X4707143Y-13196095D01*
X4688095Y-13205619D01*
X4888095Y-13329428D02*
X4897619Y-13338952D01*
X4888095Y-13348476D01*
X4878571Y-13338952D01*
X4888095Y-13329428D01*
X4888095Y-13348476D01*
X5021429Y-13148476D02*
X5040476Y-13148476D01*
X5059524Y-13158000D01*
X5069048Y-13167524D01*
X5078571Y-13186571D01*
X5088095Y-13224667D01*
X5088095Y-13272286D01*
X5078571Y-13310381D01*
X5069048Y-13329428D01*
X5059524Y-13338952D01*
X5040476Y-13348476D01*
X5021429Y-13348476D01*
X5002381Y-13338952D01*
X4992857Y-13329428D01*
X4983333Y-13310381D01*
X4973810Y-13272286D01*
X4973810Y-13224667D01*
X4983333Y-13186571D01*
X4992857Y-13167524D01*
X5002381Y-13158000D01*
X5021429Y-13148476D01*
X5164286Y-13167524D02*
X5173810Y-13158000D01*
X5192857Y-13148476D01*
X5240476Y-13148476D01*
X5259524Y-13158000D01*
X5269048Y-13167524D01*
X5278571Y-13186571D01*
X5278571Y-13205619D01*
X5269048Y-13234190D01*
X5154762Y-13348476D01*
X5278571Y-13348476D01*
X5402381Y-13148476D02*
X5421429Y-13148476D01*
X5440476Y-13158000D01*
X5450000Y-13167524D01*
X5459524Y-13186571D01*
X5469048Y-13224667D01*
X5469048Y-13272286D01*
X5459524Y-13310381D01*
X5450000Y-13329428D01*
X5440476Y-13338952D01*
X5421429Y-13348476D01*
X5402381Y-13348476D01*
X5383333Y-13338952D01*
X5373810Y-13329428D01*
X5364286Y-13310381D01*
X5354762Y-13272286D01*
X5354762Y-13224667D01*
X5364286Y-13186571D01*
X5373810Y-13167524D01*
X5383333Y-13158000D01*
X5402381Y-13148476D01*
X5554762Y-13348476D02*
X5554762Y-13215143D01*
X5554762Y-13234190D02*
X5564286Y-13224667D01*
X5583333Y-13215143D01*
X5611905Y-13215143D01*
X5630952Y-13224667D01*
X5640476Y-13243714D01*
X5640476Y-13348476D01*
X5640476Y-13243714D02*
X5650000Y-13224667D01*
X5669048Y-13215143D01*
X5697619Y-13215143D01*
X5716667Y-13224667D01*
X5726190Y-13243714D01*
X5726190Y-13348476D01*
X5821428Y-13348476D02*
X5821428Y-13215143D01*
X5821428Y-13234190D02*
X5830952Y-13224667D01*
X5850000Y-13215143D01*
X5878571Y-13215143D01*
X5897619Y-13224667D01*
X5907143Y-13243714D01*
X5907143Y-13348476D01*
X5907143Y-13243714D02*
X5916667Y-13224667D01*
X5935714Y-13215143D01*
X5964286Y-13215143D01*
X5983333Y-13224667D01*
X5992857Y-13243714D01*
X5992857Y-13348476D01*
X6383333Y-13138952D02*
X6211905Y-13396095D01*
X6640476Y-13148476D02*
X6659524Y-13148476D01*
X6678571Y-13158000D01*
X6688095Y-13167524D01*
X6697619Y-13186571D01*
X6707143Y-13224667D01*
X6707143Y-13272286D01*
X6697619Y-13310381D01*
X6688095Y-13329428D01*
X6678571Y-13338952D01*
X6659524Y-13348476D01*
X6640476Y-13348476D01*
X6621428Y-13338952D01*
X6611905Y-13329428D01*
X6602381Y-13310381D01*
X6592857Y-13272286D01*
X6592857Y-13224667D01*
X6602381Y-13186571D01*
X6611905Y-13167524D01*
X6621428Y-13158000D01*
X6640476Y-13148476D01*
X6792857Y-13329428D02*
X6802381Y-13338952D01*
X6792857Y-13348476D01*
X6783333Y-13338952D01*
X6792857Y-13329428D01*
X6792857Y-13348476D01*
X6926190Y-13148476D02*
X6945238Y-13148476D01*
X6964286Y-13158000D01*
X6973809Y-13167524D01*
X6983333Y-13186571D01*
X6992857Y-13224667D01*
X6992857Y-13272286D01*
X6983333Y-13310381D01*
X6973809Y-13329428D01*
X6964286Y-13338952D01*
X6945238Y-13348476D01*
X6926190Y-13348476D01*
X6907143Y-13338952D01*
X6897619Y-13329428D01*
X6888095Y-13310381D01*
X6878571Y-13272286D01*
X6878571Y-13224667D01*
X6888095Y-13186571D01*
X6897619Y-13167524D01*
X6907143Y-13158000D01*
X6926190Y-13148476D01*
X7164286Y-13215143D02*
X7164286Y-13348476D01*
X7116667Y-13138952D02*
X7069048Y-13281809D01*
X7192857Y-13281809D01*
X7307143Y-13148476D02*
X7326190Y-13148476D01*
X7345238Y-13158000D01*
X7354762Y-13167524D01*
X7364286Y-13186571D01*
X7373809Y-13224667D01*
X7373809Y-13272286D01*
X7364286Y-13310381D01*
X7354762Y-13329428D01*
X7345238Y-13338952D01*
X7326190Y-13348476D01*
X7307143Y-13348476D01*
X7288095Y-13338952D01*
X7278571Y-13329428D01*
X7269048Y-13310381D01*
X7259524Y-13272286D01*
X7259524Y-13224667D01*
X7269048Y-13186571D01*
X7278571Y-13167524D01*
X7288095Y-13158000D01*
X7307143Y-13148476D01*
X7450000Y-13167524D02*
X7459524Y-13158000D01*
X7478571Y-13148476D01*
X7526190Y-13148476D01*
X7545238Y-13158000D01*
X7554762Y-13167524D01*
X7564286Y-13186571D01*
X7564286Y-13205619D01*
X7554762Y-13234190D01*
X7440476Y-13348476D01*
X7564286Y-13348476D01*
X7640476Y-13148476D02*
X7640476Y-13186571D01*
X7716667Y-13148476D02*
X7716667Y-13186571D01*
X8011905Y-13424667D02*
X8002381Y-13415143D01*
X7983333Y-13386571D01*
X7973809Y-13367524D01*
X7964286Y-13338952D01*
X7954762Y-13291333D01*
X7954762Y-13253238D01*
X7964286Y-13205619D01*
X7973809Y-13177048D01*
X7983333Y-13158000D01*
X8002381Y-13129428D01*
X8011905Y-13119905D01*
X8069048Y-13148476D02*
X8202381Y-13148476D01*
X8116667Y-13348476D01*
X8430952Y-13348476D02*
X8430952Y-13148476D01*
X8516667Y-13348476D02*
X8516667Y-13243714D01*
X8507143Y-13224667D01*
X8488095Y-13215143D01*
X8459524Y-13215143D01*
X8440476Y-13224667D01*
X8430952Y-13234190D01*
X8640476Y-13348476D02*
X8621429Y-13338952D01*
X8611905Y-13329428D01*
X8602381Y-13310381D01*
X8602381Y-13253238D01*
X8611905Y-13234190D01*
X8621429Y-13224667D01*
X8640476Y-13215143D01*
X8669048Y-13215143D01*
X8688095Y-13224667D01*
X8697619Y-13234190D01*
X8707143Y-13253238D01*
X8707143Y-13310381D01*
X8697619Y-13329428D01*
X8688095Y-13338952D01*
X8669048Y-13348476D01*
X8640476Y-13348476D01*
X8821429Y-13348476D02*
X8802381Y-13338952D01*
X8792857Y-13319905D01*
X8792857Y-13148476D01*
X8973810Y-13338952D02*
X8954762Y-13348476D01*
X8916667Y-13348476D01*
X8897619Y-13338952D01*
X8888095Y-13319905D01*
X8888095Y-13243714D01*
X8897619Y-13224667D01*
X8916667Y-13215143D01*
X8954762Y-13215143D01*
X8973810Y-13224667D01*
X8983333Y-13243714D01*
X8983333Y-13262762D01*
X8888095Y-13281809D01*
X9059524Y-13338952D02*
X9078571Y-13348476D01*
X9116667Y-13348476D01*
X9135714Y-13338952D01*
X9145238Y-13319905D01*
X9145238Y-13310381D01*
X9135714Y-13291333D01*
X9116667Y-13281809D01*
X9088095Y-13281809D01*
X9069048Y-13272286D01*
X9059524Y-13253238D01*
X9059524Y-13243714D01*
X9069048Y-13224667D01*
X9088095Y-13215143D01*
X9116667Y-13215143D01*
X9135714Y-13224667D01*
X9211905Y-13424667D02*
X9221429Y-13415143D01*
X9240476Y-13386571D01*
X9250000Y-13367524D01*
X9259524Y-13338952D01*
X9269048Y-13291333D01*
X9269048Y-13253238D01*
X9259524Y-13205619D01*
X9250000Y-13177048D01*
X9240476Y-13158000D01*
X9221429Y-13129428D01*
X9211905Y-13119905D01*
D16*
X4330000Y-13467000D02*
X4440000Y-13577000D01*
X4440000Y-13467000D02*
X4330000Y-13577000D01*
X4440000Y-13522000D02*
G75*
G03*
X4440000Y-13522000I-55000J0D01*
G01*
D11*
X4802381Y-13612476D02*
X4688095Y-13612476D01*
X4745238Y-13612476D02*
X4745238Y-13412476D01*
X4726190Y-13441048D01*
X4707143Y-13460095D01*
X4688095Y-13469619D01*
X4888095Y-13593428D02*
X4897619Y-13602952D01*
X4888095Y-13612476D01*
X4878571Y-13602952D01*
X4888095Y-13593428D01*
X4888095Y-13612476D01*
X5088095Y-13612476D02*
X4973810Y-13612476D01*
X5030952Y-13612476D02*
X5030952Y-13412476D01*
X5011905Y-13441048D01*
X4992857Y-13460095D01*
X4973810Y-13469619D01*
X5211905Y-13412476D02*
X5230952Y-13412476D01*
X5250000Y-13422000D01*
X5259524Y-13431524D01*
X5269048Y-13450571D01*
X5278571Y-13488667D01*
X5278571Y-13536286D01*
X5269048Y-13574381D01*
X5259524Y-13593428D01*
X5250000Y-13602952D01*
X5230952Y-13612476D01*
X5211905Y-13612476D01*
X5192857Y-13602952D01*
X5183333Y-13593428D01*
X5173810Y-13574381D01*
X5164286Y-13536286D01*
X5164286Y-13488667D01*
X5173810Y-13450571D01*
X5183333Y-13431524D01*
X5192857Y-13422000D01*
X5211905Y-13412476D01*
X5402381Y-13412476D02*
X5421429Y-13412476D01*
X5440476Y-13422000D01*
X5450000Y-13431524D01*
X5459524Y-13450571D01*
X5469048Y-13488667D01*
X5469048Y-13536286D01*
X5459524Y-13574381D01*
X5450000Y-13593428D01*
X5440476Y-13602952D01*
X5421429Y-13612476D01*
X5402381Y-13612476D01*
X5383333Y-13602952D01*
X5373810Y-13593428D01*
X5364286Y-13574381D01*
X5354762Y-13536286D01*
X5354762Y-13488667D01*
X5364286Y-13450571D01*
X5373810Y-13431524D01*
X5383333Y-13422000D01*
X5402381Y-13412476D01*
X5554762Y-13612476D02*
X5554762Y-13479143D01*
X5554762Y-13498190D02*
X5564286Y-13488667D01*
X5583333Y-13479143D01*
X5611905Y-13479143D01*
X5630952Y-13488667D01*
X5640476Y-13507714D01*
X5640476Y-13612476D01*
X5640476Y-13507714D02*
X5650000Y-13488667D01*
X5669048Y-13479143D01*
X5697619Y-13479143D01*
X5716667Y-13488667D01*
X5726190Y-13507714D01*
X5726190Y-13612476D01*
X5821428Y-13612476D02*
X5821428Y-13479143D01*
X5821428Y-13498190D02*
X5830952Y-13488667D01*
X5850000Y-13479143D01*
X5878571Y-13479143D01*
X5897619Y-13488667D01*
X5907143Y-13507714D01*
X5907143Y-13612476D01*
X5907143Y-13507714D02*
X5916667Y-13488667D01*
X5935714Y-13479143D01*
X5964286Y-13479143D01*
X5983333Y-13488667D01*
X5992857Y-13507714D01*
X5992857Y-13612476D01*
X6383333Y-13402952D02*
X6211905Y-13660095D01*
X6640476Y-13412476D02*
X6659524Y-13412476D01*
X6678571Y-13422000D01*
X6688095Y-13431524D01*
X6697619Y-13450571D01*
X6707143Y-13488667D01*
X6707143Y-13536286D01*
X6697619Y-13574381D01*
X6688095Y-13593428D01*
X6678571Y-13602952D01*
X6659524Y-13612476D01*
X6640476Y-13612476D01*
X6621428Y-13602952D01*
X6611905Y-13593428D01*
X6602381Y-13574381D01*
X6592857Y-13536286D01*
X6592857Y-13488667D01*
X6602381Y-13450571D01*
X6611905Y-13431524D01*
X6621428Y-13422000D01*
X6640476Y-13412476D01*
X6792857Y-13593428D02*
X6802381Y-13602952D01*
X6792857Y-13612476D01*
X6783333Y-13602952D01*
X6792857Y-13593428D01*
X6792857Y-13612476D01*
X6926190Y-13412476D02*
X6945238Y-13412476D01*
X6964286Y-13422000D01*
X6973809Y-13431524D01*
X6983333Y-13450571D01*
X6992857Y-13488667D01*
X6992857Y-13536286D01*
X6983333Y-13574381D01*
X6973809Y-13593428D01*
X6964286Y-13602952D01*
X6945238Y-13612476D01*
X6926190Y-13612476D01*
X6907143Y-13602952D01*
X6897619Y-13593428D01*
X6888095Y-13574381D01*
X6878571Y-13536286D01*
X6878571Y-13488667D01*
X6888095Y-13450571D01*
X6897619Y-13431524D01*
X6907143Y-13422000D01*
X6926190Y-13412476D01*
X7164286Y-13479143D02*
X7164286Y-13612476D01*
X7116667Y-13402952D02*
X7069048Y-13545809D01*
X7192857Y-13545809D01*
X7250000Y-13412476D02*
X7373809Y-13412476D01*
X7307143Y-13488667D01*
X7335714Y-13488667D01*
X7354762Y-13498190D01*
X7364286Y-13507714D01*
X7373809Y-13526762D01*
X7373809Y-13574381D01*
X7364286Y-13593428D01*
X7354762Y-13602952D01*
X7335714Y-13612476D01*
X7278571Y-13612476D01*
X7259524Y-13602952D01*
X7250000Y-13593428D01*
X7440476Y-13412476D02*
X7564286Y-13412476D01*
X7497619Y-13488667D01*
X7526190Y-13488667D01*
X7545238Y-13498190D01*
X7554762Y-13507714D01*
X7564286Y-13526762D01*
X7564286Y-13574381D01*
X7554762Y-13593428D01*
X7545238Y-13602952D01*
X7526190Y-13612476D01*
X7469048Y-13612476D01*
X7450000Y-13602952D01*
X7440476Y-13593428D01*
X7640476Y-13412476D02*
X7640476Y-13450571D01*
X7716667Y-13412476D02*
X7716667Y-13450571D01*
X8011905Y-13688667D02*
X8002381Y-13679143D01*
X7983333Y-13650571D01*
X7973809Y-13631524D01*
X7964286Y-13602952D01*
X7954762Y-13555333D01*
X7954762Y-13517238D01*
X7964286Y-13469619D01*
X7973809Y-13441048D01*
X7983333Y-13422000D01*
X8002381Y-13393428D01*
X8011905Y-13383905D01*
X8069048Y-13412476D02*
X8192857Y-13412476D01*
X8126190Y-13488667D01*
X8154762Y-13488667D01*
X8173809Y-13498190D01*
X8183333Y-13507714D01*
X8192857Y-13526762D01*
X8192857Y-13574381D01*
X8183333Y-13593428D01*
X8173809Y-13602952D01*
X8154762Y-13612476D01*
X8097619Y-13612476D01*
X8078571Y-13602952D01*
X8069048Y-13593428D01*
X8430952Y-13612476D02*
X8430952Y-13412476D01*
X8516667Y-13612476D02*
X8516667Y-13507714D01*
X8507143Y-13488667D01*
X8488095Y-13479143D01*
X8459524Y-13479143D01*
X8440476Y-13488667D01*
X8430952Y-13498190D01*
X8640476Y-13612476D02*
X8621429Y-13602952D01*
X8611905Y-13593428D01*
X8602381Y-13574381D01*
X8602381Y-13517238D01*
X8611905Y-13498190D01*
X8621429Y-13488667D01*
X8640476Y-13479143D01*
X8669048Y-13479143D01*
X8688095Y-13488667D01*
X8697619Y-13498190D01*
X8707143Y-13517238D01*
X8707143Y-13574381D01*
X8697619Y-13593428D01*
X8688095Y-13602952D01*
X8669048Y-13612476D01*
X8640476Y-13612476D01*
X8821429Y-13612476D02*
X8802381Y-13602952D01*
X8792857Y-13583905D01*
X8792857Y-13412476D01*
X8973810Y-13602952D02*
X8954762Y-13612476D01*
X8916667Y-13612476D01*
X8897619Y-13602952D01*
X8888095Y-13583905D01*
X8888095Y-13507714D01*
X8897619Y-13488667D01*
X8916667Y-13479143D01*
X8954762Y-13479143D01*
X8973810Y-13488667D01*
X8983333Y-13507714D01*
X8983333Y-13526762D01*
X8888095Y-13545809D01*
X9059524Y-13602952D02*
X9078571Y-13612476D01*
X9116667Y-13612476D01*
X9135714Y-13602952D01*
X9145238Y-13583905D01*
X9145238Y-13574381D01*
X9135714Y-13555333D01*
X9116667Y-13545809D01*
X9088095Y-13545809D01*
X9069048Y-13536286D01*
X9059524Y-13517238D01*
X9059524Y-13507714D01*
X9069048Y-13488667D01*
X9088095Y-13479143D01*
X9116667Y-13479143D01*
X9135714Y-13488667D01*
X9211905Y-13688667D02*
X9221429Y-13679143D01*
X9240476Y-13650571D01*
X9250000Y-13631524D01*
X9259524Y-13602952D01*
X9269048Y-13555333D01*
X9269048Y-13517238D01*
X9259524Y-13469619D01*
X9250000Y-13441048D01*
X9240476Y-13422000D01*
X9221429Y-13393428D01*
X9211905Y-13383905D01*
X4240000Y-13686000D02*
X4440000Y-13886000D01*
X4440000Y-13686000D02*
X4240000Y-13886000D01*
X4340000Y-13686000D02*
X4340000Y-13886000D01*
X4240000Y-13786000D02*
X4440000Y-13786000D01*
X4688095Y-13695524D02*
X4697619Y-13686000D01*
X4716667Y-13676476D01*
X4764286Y-13676476D01*
X4783333Y-13686000D01*
X4792857Y-13695524D01*
X4802381Y-13714571D01*
X4802381Y-13733619D01*
X4792857Y-13762190D01*
X4678571Y-13876476D01*
X4802381Y-13876476D01*
X4888095Y-13857428D02*
X4897619Y-13866952D01*
X4888095Y-13876476D01*
X4878571Y-13866952D01*
X4888095Y-13857428D01*
X4888095Y-13876476D01*
X5021429Y-13676476D02*
X5040476Y-13676476D01*
X5059524Y-13686000D01*
X5069048Y-13695524D01*
X5078571Y-13714571D01*
X5088095Y-13752667D01*
X5088095Y-13800286D01*
X5078571Y-13838381D01*
X5069048Y-13857428D01*
X5059524Y-13866952D01*
X5040476Y-13876476D01*
X5021429Y-13876476D01*
X5002381Y-13866952D01*
X4992857Y-13857428D01*
X4983333Y-13838381D01*
X4973810Y-13800286D01*
X4973810Y-13752667D01*
X4983333Y-13714571D01*
X4992857Y-13695524D01*
X5002381Y-13686000D01*
X5021429Y-13676476D01*
X5211905Y-13676476D02*
X5230952Y-13676476D01*
X5250000Y-13686000D01*
X5259524Y-13695524D01*
X5269048Y-13714571D01*
X5278571Y-13752667D01*
X5278571Y-13800286D01*
X5269048Y-13838381D01*
X5259524Y-13857428D01*
X5250000Y-13866952D01*
X5230952Y-13876476D01*
X5211905Y-13876476D01*
X5192857Y-13866952D01*
X5183333Y-13857428D01*
X5173810Y-13838381D01*
X5164286Y-13800286D01*
X5164286Y-13752667D01*
X5173810Y-13714571D01*
X5183333Y-13695524D01*
X5192857Y-13686000D01*
X5211905Y-13676476D01*
X5402381Y-13676476D02*
X5421429Y-13676476D01*
X5440476Y-13686000D01*
X5450000Y-13695524D01*
X5459524Y-13714571D01*
X5469048Y-13752667D01*
X5469048Y-13800286D01*
X5459524Y-13838381D01*
X5450000Y-13857428D01*
X5440476Y-13866952D01*
X5421429Y-13876476D01*
X5402381Y-13876476D01*
X5383333Y-13866952D01*
X5373810Y-13857428D01*
X5364286Y-13838381D01*
X5354762Y-13800286D01*
X5354762Y-13752667D01*
X5364286Y-13714571D01*
X5373810Y-13695524D01*
X5383333Y-13686000D01*
X5402381Y-13676476D01*
X5554762Y-13876476D02*
X5554762Y-13743143D01*
X5554762Y-13762190D02*
X5564286Y-13752667D01*
X5583333Y-13743143D01*
X5611905Y-13743143D01*
X5630952Y-13752667D01*
X5640476Y-13771714D01*
X5640476Y-13876476D01*
X5640476Y-13771714D02*
X5650000Y-13752667D01*
X5669048Y-13743143D01*
X5697619Y-13743143D01*
X5716667Y-13752667D01*
X5726190Y-13771714D01*
X5726190Y-13876476D01*
X5821428Y-13876476D02*
X5821428Y-13743143D01*
X5821428Y-13762190D02*
X5830952Y-13752667D01*
X5850000Y-13743143D01*
X5878571Y-13743143D01*
X5897619Y-13752667D01*
X5907143Y-13771714D01*
X5907143Y-13876476D01*
X5907143Y-13771714D02*
X5916667Y-13752667D01*
X5935714Y-13743143D01*
X5964286Y-13743143D01*
X5983333Y-13752667D01*
X5992857Y-13771714D01*
X5992857Y-13876476D01*
X6383333Y-13666952D02*
X6211905Y-13924095D01*
X6640476Y-13676476D02*
X6659524Y-13676476D01*
X6678571Y-13686000D01*
X6688095Y-13695524D01*
X6697619Y-13714571D01*
X6707143Y-13752667D01*
X6707143Y-13800286D01*
X6697619Y-13838381D01*
X6688095Y-13857428D01*
X6678571Y-13866952D01*
X6659524Y-13876476D01*
X6640476Y-13876476D01*
X6621428Y-13866952D01*
X6611905Y-13857428D01*
X6602381Y-13838381D01*
X6592857Y-13800286D01*
X6592857Y-13752667D01*
X6602381Y-13714571D01*
X6611905Y-13695524D01*
X6621428Y-13686000D01*
X6640476Y-13676476D01*
X6792857Y-13857428D02*
X6802381Y-13866952D01*
X6792857Y-13876476D01*
X6783333Y-13866952D01*
X6792857Y-13857428D01*
X6792857Y-13876476D01*
X6926190Y-13676476D02*
X6945238Y-13676476D01*
X6964286Y-13686000D01*
X6973809Y-13695524D01*
X6983333Y-13714571D01*
X6992857Y-13752667D01*
X6992857Y-13800286D01*
X6983333Y-13838381D01*
X6973809Y-13857428D01*
X6964286Y-13866952D01*
X6945238Y-13876476D01*
X6926190Y-13876476D01*
X6907143Y-13866952D01*
X6897619Y-13857428D01*
X6888095Y-13838381D01*
X6878571Y-13800286D01*
X6878571Y-13752667D01*
X6888095Y-13714571D01*
X6897619Y-13695524D01*
X6907143Y-13686000D01*
X6926190Y-13676476D01*
X7059524Y-13676476D02*
X7192857Y-13676476D01*
X7107143Y-13876476D01*
X7297619Y-13762190D02*
X7278571Y-13752667D01*
X7269048Y-13743143D01*
X7259524Y-13724095D01*
X7259524Y-13714571D01*
X7269048Y-13695524D01*
X7278571Y-13686000D01*
X7297619Y-13676476D01*
X7335714Y-13676476D01*
X7354762Y-13686000D01*
X7364286Y-13695524D01*
X7373809Y-13714571D01*
X7373809Y-13724095D01*
X7364286Y-13743143D01*
X7354762Y-13752667D01*
X7335714Y-13762190D01*
X7297619Y-13762190D01*
X7278571Y-13771714D01*
X7269048Y-13781238D01*
X7259524Y-13800286D01*
X7259524Y-13838381D01*
X7269048Y-13857428D01*
X7278571Y-13866952D01*
X7297619Y-13876476D01*
X7335714Y-13876476D01*
X7354762Y-13866952D01*
X7364286Y-13857428D01*
X7373809Y-13838381D01*
X7373809Y-13800286D01*
X7364286Y-13781238D01*
X7354762Y-13771714D01*
X7335714Y-13762190D01*
X7440476Y-13676476D02*
X7573809Y-13676476D01*
X7488095Y-13876476D01*
X7640476Y-13676476D02*
X7640476Y-13714571D01*
X7716667Y-13676476D02*
X7716667Y-13714571D01*
X8011905Y-13952667D02*
X8002381Y-13943143D01*
X7983333Y-13914571D01*
X7973809Y-13895524D01*
X7964286Y-13866952D01*
X7954762Y-13819333D01*
X7954762Y-13781238D01*
X7964286Y-13733619D01*
X7973809Y-13705048D01*
X7983333Y-13686000D01*
X8002381Y-13657428D01*
X8011905Y-13647905D01*
X8126190Y-13676476D02*
X8145238Y-13676476D01*
X8164286Y-13686000D01*
X8173809Y-13695524D01*
X8183333Y-13714571D01*
X8192857Y-13752667D01*
X8192857Y-13800286D01*
X8183333Y-13838381D01*
X8173809Y-13857428D01*
X8164286Y-13866952D01*
X8145238Y-13876476D01*
X8126190Y-13876476D01*
X8107143Y-13866952D01*
X8097619Y-13857428D01*
X8088095Y-13838381D01*
X8078571Y-13800286D01*
X8078571Y-13752667D01*
X8088095Y-13714571D01*
X8097619Y-13695524D01*
X8107143Y-13686000D01*
X8126190Y-13676476D01*
X8430952Y-13876476D02*
X8430952Y-13676476D01*
X8516667Y-13876476D02*
X8516667Y-13771714D01*
X8507143Y-13752667D01*
X8488095Y-13743143D01*
X8459524Y-13743143D01*
X8440476Y-13752667D01*
X8430952Y-13762190D01*
X8640476Y-13876476D02*
X8621429Y-13866952D01*
X8611905Y-13857428D01*
X8602381Y-13838381D01*
X8602381Y-13781238D01*
X8611905Y-13762190D01*
X8621429Y-13752667D01*
X8640476Y-13743143D01*
X8669048Y-13743143D01*
X8688095Y-13752667D01*
X8697619Y-13762190D01*
X8707143Y-13781238D01*
X8707143Y-13838381D01*
X8697619Y-13857428D01*
X8688095Y-13866952D01*
X8669048Y-13876476D01*
X8640476Y-13876476D01*
X8821429Y-13876476D02*
X8802381Y-13866952D01*
X8792857Y-13847905D01*
X8792857Y-13676476D01*
X8973810Y-13866952D02*
X8954762Y-13876476D01*
X8916667Y-13876476D01*
X8897619Y-13866952D01*
X8888095Y-13847905D01*
X8888095Y-13771714D01*
X8897619Y-13752667D01*
X8916667Y-13743143D01*
X8954762Y-13743143D01*
X8973810Y-13752667D01*
X8983333Y-13771714D01*
X8983333Y-13790762D01*
X8888095Y-13809809D01*
X9059524Y-13866952D02*
X9078571Y-13876476D01*
X9116667Y-13876476D01*
X9135714Y-13866952D01*
X9145238Y-13847905D01*
X9145238Y-13838381D01*
X9135714Y-13819333D01*
X9116667Y-13809809D01*
X9088095Y-13809809D01*
X9069048Y-13800286D01*
X9059524Y-13781238D01*
X9059524Y-13771714D01*
X9069048Y-13752667D01*
X9088095Y-13743143D01*
X9116667Y-13743143D01*
X9135714Y-13752667D01*
X9383333Y-13800286D02*
X9535714Y-13800286D01*
X9459524Y-13876476D02*
X9459524Y-13724095D01*
X9773810Y-13695524D02*
X9783333Y-13686000D01*
X9802381Y-13676476D01*
X9850000Y-13676476D01*
X9869048Y-13686000D01*
X9878571Y-13695524D01*
X9888095Y-13714571D01*
X9888095Y-13733619D01*
X9878571Y-13762190D01*
X9764286Y-13876476D01*
X9888095Y-13876476D01*
X10116667Y-13866952D02*
X10135714Y-13876476D01*
X10173810Y-13876476D01*
X10192857Y-13866952D01*
X10202381Y-13847905D01*
X10202381Y-13838381D01*
X10192857Y-13819333D01*
X10173810Y-13809809D01*
X10145238Y-13809809D01*
X10126190Y-13800286D01*
X10116667Y-13781238D01*
X10116667Y-13771714D01*
X10126190Y-13752667D01*
X10145238Y-13743143D01*
X10173810Y-13743143D01*
X10192857Y-13752667D01*
X10316667Y-13876476D02*
X10297619Y-13866952D01*
X10288095Y-13847905D01*
X10288095Y-13676476D01*
X10421429Y-13876476D02*
X10402381Y-13866952D01*
X10392857Y-13857428D01*
X10383333Y-13838381D01*
X10383333Y-13781238D01*
X10392857Y-13762190D01*
X10402381Y-13752667D01*
X10421429Y-13743143D01*
X10450000Y-13743143D01*
X10469048Y-13752667D01*
X10478571Y-13762190D01*
X10488095Y-13781238D01*
X10488095Y-13838381D01*
X10478571Y-13857428D01*
X10469048Y-13866952D01*
X10450000Y-13876476D01*
X10421429Y-13876476D01*
X10545238Y-13743143D02*
X10621429Y-13743143D01*
X10573810Y-13676476D02*
X10573810Y-13847905D01*
X10583333Y-13866952D01*
X10602381Y-13876476D01*
X10621429Y-13876476D01*
X10678571Y-13866952D02*
X10697619Y-13876476D01*
X10735714Y-13876476D01*
X10754762Y-13866952D01*
X10764286Y-13847905D01*
X10764286Y-13838381D01*
X10754762Y-13819333D01*
X10735714Y-13809809D01*
X10707143Y-13809809D01*
X10688095Y-13800286D01*
X10678571Y-13781238D01*
X10678571Y-13771714D01*
X10688095Y-13752667D01*
X10707143Y-13743143D01*
X10735714Y-13743143D01*
X10754762Y-13752667D01*
X10830952Y-13952667D02*
X10840476Y-13943143D01*
X10859524Y-13914571D01*
X10869048Y-13895524D01*
X10878571Y-13866952D01*
X10888095Y-13819333D01*
X10888095Y-13781238D01*
X10878571Y-13733619D01*
X10869048Y-13705048D01*
X10859524Y-13686000D01*
X10840476Y-13657428D01*
X10830952Y-13647905D01*
M02*
