%TF.GenerationSoftware,KiCad,Pcbnew,(6.0.7)*%
%TF.CreationDate,2022-09-17T11:26:47-05:00*%
%TF.ProjectId,BrushlessController,42727573-686c-4657-9373-436f6e74726f,-*%
%TF.SameCoordinates,Original*%
%TF.FileFunction,Legend,Bot*%
%TF.FilePolarity,Positive*%
%FSLAX46Y46*%
G04 Gerber Fmt 4.6, Leading zero omitted, Abs format (unit mm)*
G04 Created by KiCad (PCBNEW (6.0.7)) date 2022-09-17 11:26:47*
%MOMM*%
%LPD*%
G01*
G04 APERTURE LIST*
%ADD10C,0.100000*%
%ADD11C,0.150000*%
%ADD12C,0.300000*%
%ADD13C,0.400000*%
%ADD14C,0.508000*%
G04 APERTURE END LIST*
D10*
D11*
X10000000Y-10000000D02*
X10000000Y-205900000D01*
X269400000Y-205900000D01*
X269400000Y-10000000D01*
X10000000Y-10000000D01*
D10*
D11*
X12000000Y-12000000D02*
X12000000Y-203900000D01*
X267400000Y-203900000D01*
X267400000Y-12000000D01*
X12000000Y-12000000D01*
D10*
D11*
X60000000Y-12000000D02*
X60000000Y-10000000D01*
D10*
D11*
X110000000Y-12000000D02*
X110000000Y-10000000D01*
D10*
D11*
X160000000Y-12000000D02*
X160000000Y-10000000D01*
D10*
D11*
X210000000Y-12000000D02*
X210000000Y-10000000D01*
D10*
D11*
X260000000Y-12000000D02*
X260000000Y-10000000D01*
D10*
D11*
X36065476Y-11588095D02*
X35322619Y-11588095D01*
X35694047Y-11588095D02*
X35694047Y-10288095D01*
X35570238Y-10473809D01*
X35446428Y-10597619D01*
X35322619Y-10659523D01*
D10*
D11*
X85322619Y-10411904D02*
X85384523Y-10350000D01*
X85508333Y-10288095D01*
X85817857Y-10288095D01*
X85941666Y-10350000D01*
X86003571Y-10411904D01*
X86065476Y-10535714D01*
X86065476Y-10659523D01*
X86003571Y-10845238D01*
X85260714Y-11588095D01*
X86065476Y-11588095D01*
D10*
D11*
X135260714Y-10288095D02*
X136065476Y-10288095D01*
X135632142Y-10783333D01*
X135817857Y-10783333D01*
X135941666Y-10845238D01*
X136003571Y-10907142D01*
X136065476Y-11030952D01*
X136065476Y-11340476D01*
X136003571Y-11464285D01*
X135941666Y-11526190D01*
X135817857Y-11588095D01*
X135446428Y-11588095D01*
X135322619Y-11526190D01*
X135260714Y-11464285D01*
D10*
D11*
X185941666Y-10721428D02*
X185941666Y-11588095D01*
X185632142Y-10226190D02*
X185322619Y-11154761D01*
X186127380Y-11154761D01*
D10*
D11*
X236003571Y-10288095D02*
X235384523Y-10288095D01*
X235322619Y-10907142D01*
X235384523Y-10845238D01*
X235508333Y-10783333D01*
X235817857Y-10783333D01*
X235941666Y-10845238D01*
X236003571Y-10907142D01*
X236065476Y-11030952D01*
X236065476Y-11340476D01*
X236003571Y-11464285D01*
X235941666Y-11526190D01*
X235817857Y-11588095D01*
X235508333Y-11588095D01*
X235384523Y-11526190D01*
X235322619Y-11464285D01*
D10*
D11*
X60000000Y-203900000D02*
X60000000Y-205900000D01*
D10*
D11*
X110000000Y-203900000D02*
X110000000Y-205900000D01*
D10*
D11*
X160000000Y-203900000D02*
X160000000Y-205900000D01*
D10*
D11*
X210000000Y-203900000D02*
X210000000Y-205900000D01*
D10*
D11*
X260000000Y-203900000D02*
X260000000Y-205900000D01*
D10*
D11*
X36065476Y-205488095D02*
X35322619Y-205488095D01*
X35694047Y-205488095D02*
X35694047Y-204188095D01*
X35570238Y-204373809D01*
X35446428Y-204497619D01*
X35322619Y-204559523D01*
D10*
D11*
X85322619Y-204311904D02*
X85384523Y-204250000D01*
X85508333Y-204188095D01*
X85817857Y-204188095D01*
X85941666Y-204250000D01*
X86003571Y-204311904D01*
X86065476Y-204435714D01*
X86065476Y-204559523D01*
X86003571Y-204745238D01*
X85260714Y-205488095D01*
X86065476Y-205488095D01*
D10*
D11*
X135260714Y-204188095D02*
X136065476Y-204188095D01*
X135632142Y-204683333D01*
X135817857Y-204683333D01*
X135941666Y-204745238D01*
X136003571Y-204807142D01*
X136065476Y-204930952D01*
X136065476Y-205240476D01*
X136003571Y-205364285D01*
X135941666Y-205426190D01*
X135817857Y-205488095D01*
X135446428Y-205488095D01*
X135322619Y-205426190D01*
X135260714Y-205364285D01*
D10*
D11*
X185941666Y-204621428D02*
X185941666Y-205488095D01*
X185632142Y-204126190D02*
X185322619Y-205054761D01*
X186127380Y-205054761D01*
D10*
D11*
X236003571Y-204188095D02*
X235384523Y-204188095D01*
X235322619Y-204807142D01*
X235384523Y-204745238D01*
X235508333Y-204683333D01*
X235817857Y-204683333D01*
X235941666Y-204745238D01*
X236003571Y-204807142D01*
X236065476Y-204930952D01*
X236065476Y-205240476D01*
X236003571Y-205364285D01*
X235941666Y-205426190D01*
X235817857Y-205488095D01*
X235508333Y-205488095D01*
X235384523Y-205426190D01*
X235322619Y-205364285D01*
D10*
D11*
X10000000Y-60000000D02*
X12000000Y-60000000D01*
D10*
D11*
X10000000Y-110000000D02*
X12000000Y-110000000D01*
D10*
D11*
X10000000Y-160000000D02*
X12000000Y-160000000D01*
D10*
D11*
X10690476Y-35216666D02*
X11309523Y-35216666D01*
X10566666Y-35588095D02*
X11000000Y-34288095D01*
X11433333Y-35588095D01*
D10*
D11*
X11092857Y-84907142D02*
X11278571Y-84969047D01*
X11340476Y-85030952D01*
X11402380Y-85154761D01*
X11402380Y-85340476D01*
X11340476Y-85464285D01*
X11278571Y-85526190D01*
X11154761Y-85588095D01*
X10659523Y-85588095D01*
X10659523Y-84288095D01*
X11092857Y-84288095D01*
X11216666Y-84350000D01*
X11278571Y-84411904D01*
X11340476Y-84535714D01*
X11340476Y-84659523D01*
X11278571Y-84783333D01*
X11216666Y-84845238D01*
X11092857Y-84907142D01*
X10659523Y-84907142D01*
D10*
D11*
X11402380Y-135464285D02*
X11340476Y-135526190D01*
X11154761Y-135588095D01*
X11030952Y-135588095D01*
X10845238Y-135526190D01*
X10721428Y-135402380D01*
X10659523Y-135278571D01*
X10597619Y-135030952D01*
X10597619Y-134845238D01*
X10659523Y-134597619D01*
X10721428Y-134473809D01*
X10845238Y-134350000D01*
X11030952Y-134288095D01*
X11154761Y-134288095D01*
X11340476Y-134350000D01*
X11402380Y-134411904D01*
D10*
D11*
X10659523Y-185588095D02*
X10659523Y-184288095D01*
X10969047Y-184288095D01*
X11154761Y-184350000D01*
X11278571Y-184473809D01*
X11340476Y-184597619D01*
X11402380Y-184845238D01*
X11402380Y-185030952D01*
X11340476Y-185278571D01*
X11278571Y-185402380D01*
X11154761Y-185526190D01*
X10969047Y-185588095D01*
X10659523Y-185588095D01*
D10*
D11*
X269400000Y-60000000D02*
X267400000Y-60000000D01*
D10*
D11*
X269400000Y-110000000D02*
X267400000Y-110000000D01*
D10*
D11*
X269400000Y-160000000D02*
X267400000Y-160000000D01*
D10*
D11*
X268090476Y-35216666D02*
X268709523Y-35216666D01*
X267966666Y-35588095D02*
X268400000Y-34288095D01*
X268833333Y-35588095D01*
D10*
D11*
X268492857Y-84907142D02*
X268678571Y-84969047D01*
X268740476Y-85030952D01*
X268802380Y-85154761D01*
X268802380Y-85340476D01*
X268740476Y-85464285D01*
X268678571Y-85526190D01*
X268554761Y-85588095D01*
X268059523Y-85588095D01*
X268059523Y-84288095D01*
X268492857Y-84288095D01*
X268616666Y-84350000D01*
X268678571Y-84411904D01*
X268740476Y-84535714D01*
X268740476Y-84659523D01*
X268678571Y-84783333D01*
X268616666Y-84845238D01*
X268492857Y-84907142D01*
X268059523Y-84907142D01*
D10*
D11*
X268802380Y-135464285D02*
X268740476Y-135526190D01*
X268554761Y-135588095D01*
X268430952Y-135588095D01*
X268245238Y-135526190D01*
X268121428Y-135402380D01*
X268059523Y-135278571D01*
X267997619Y-135030952D01*
X267997619Y-134845238D01*
X268059523Y-134597619D01*
X268121428Y-134473809D01*
X268245238Y-134350000D01*
X268430952Y-134288095D01*
X268554761Y-134288095D01*
X268740476Y-134350000D01*
X268802380Y-134411904D01*
D10*
D11*
X268059523Y-185588095D02*
X268059523Y-184288095D01*
X268369047Y-184288095D01*
X268554761Y-184350000D01*
X268678571Y-184473809D01*
X268740476Y-184597619D01*
X268802380Y-184845238D01*
X268802380Y-185030952D01*
X268740476Y-185278571D01*
X268678571Y-185402380D01*
X268554761Y-185526190D01*
X268369047Y-185588095D01*
X268059523Y-185588095D01*
D10*
D11*
X208832142Y-202678371D02*
X208832142Y-201178371D01*
X209189285Y-201178371D01*
X209403571Y-201249800D01*
X209546428Y-201392657D01*
X209617857Y-201535514D01*
X209689285Y-201821228D01*
X209689285Y-202035514D01*
X209617857Y-202321228D01*
X209546428Y-202464085D01*
X209403571Y-202606942D01*
X209189285Y-202678371D01*
X208832142Y-202678371D01*
X210975000Y-202678371D02*
X210975000Y-201892657D01*
X210903571Y-201749800D01*
X210760714Y-201678371D01*
X210475000Y-201678371D01*
X210332142Y-201749800D01*
X210975000Y-202606942D02*
X210832142Y-202678371D01*
X210475000Y-202678371D01*
X210332142Y-202606942D01*
X210260714Y-202464085D01*
X210260714Y-202321228D01*
X210332142Y-202178371D01*
X210475000Y-202106942D01*
X210832142Y-202106942D01*
X210975000Y-202035514D01*
X211475000Y-201678371D02*
X212046428Y-201678371D01*
X211689285Y-201178371D02*
X211689285Y-202464085D01*
X211760714Y-202606942D01*
X211903571Y-202678371D01*
X212046428Y-202678371D01*
X213117857Y-202606942D02*
X212975000Y-202678371D01*
X212689285Y-202678371D01*
X212546428Y-202606942D01*
X212475000Y-202464085D01*
X212475000Y-201892657D01*
X212546428Y-201749800D01*
X212689285Y-201678371D01*
X212975000Y-201678371D01*
X213117857Y-201749800D01*
X213189285Y-201892657D01*
X213189285Y-202035514D01*
X212475000Y-202178371D01*
X213832142Y-202535514D02*
X213903571Y-202606942D01*
X213832142Y-202678371D01*
X213760714Y-202606942D01*
X213832142Y-202535514D01*
X213832142Y-202678371D01*
X213832142Y-201749800D02*
X213903571Y-201821228D01*
X213832142Y-201892657D01*
X213760714Y-201821228D01*
X213832142Y-201749800D01*
X213832142Y-201892657D01*
X215617857Y-201321228D02*
X215689285Y-201249800D01*
X215832142Y-201178371D01*
X216189285Y-201178371D01*
X216332142Y-201249800D01*
X216403571Y-201321228D01*
X216475000Y-201464085D01*
X216475000Y-201606942D01*
X216403571Y-201821228D01*
X215546428Y-202678371D01*
X216475000Y-202678371D01*
X217403571Y-201178371D02*
X217546428Y-201178371D01*
X217689285Y-201249800D01*
X217760714Y-201321228D01*
X217832142Y-201464085D01*
X217903571Y-201749800D01*
X217903571Y-202106942D01*
X217832142Y-202392657D01*
X217760714Y-202535514D01*
X217689285Y-202606942D01*
X217546428Y-202678371D01*
X217403571Y-202678371D01*
X217260714Y-202606942D01*
X217189285Y-202535514D01*
X217117857Y-202392657D01*
X217046428Y-202106942D01*
X217046428Y-201749800D01*
X217117857Y-201464085D01*
X217189285Y-201321228D01*
X217260714Y-201249800D01*
X217403571Y-201178371D01*
X218475000Y-201321228D02*
X218546428Y-201249800D01*
X218689285Y-201178371D01*
X219046428Y-201178371D01*
X219189285Y-201249800D01*
X219260714Y-201321228D01*
X219332142Y-201464085D01*
X219332142Y-201606942D01*
X219260714Y-201821228D01*
X218403571Y-202678371D01*
X219332142Y-202678371D01*
X219903571Y-201321228D02*
X219975000Y-201249800D01*
X220117857Y-201178371D01*
X220475000Y-201178371D01*
X220617857Y-201249800D01*
X220689285Y-201321228D01*
X220760714Y-201464085D01*
X220760714Y-201606942D01*
X220689285Y-201821228D01*
X219832142Y-202678371D01*
X220760714Y-202678371D01*
X221403571Y-202106942D02*
X222546428Y-202106942D01*
X223546428Y-201178371D02*
X223689285Y-201178371D01*
X223832142Y-201249800D01*
X223903571Y-201321228D01*
X223975000Y-201464085D01*
X224046428Y-201749800D01*
X224046428Y-202106942D01*
X223975000Y-202392657D01*
X223903571Y-202535514D01*
X223832142Y-202606942D01*
X223689285Y-202678371D01*
X223546428Y-202678371D01*
X223403571Y-202606942D01*
X223332142Y-202535514D01*
X223260714Y-202392657D01*
X223189285Y-202106942D01*
X223189285Y-201749800D01*
X223260714Y-201464085D01*
X223332142Y-201321228D01*
X223403571Y-201249800D01*
X223546428Y-201178371D01*
X224760714Y-202678371D02*
X225046428Y-202678371D01*
X225189285Y-202606942D01*
X225260714Y-202535514D01*
X225403571Y-202321228D01*
X225475000Y-202035514D01*
X225475000Y-201464085D01*
X225403571Y-201321228D01*
X225332142Y-201249800D01*
X225189285Y-201178371D01*
X224903571Y-201178371D01*
X224760714Y-201249800D01*
X224689285Y-201321228D01*
X224617857Y-201464085D01*
X224617857Y-201821228D01*
X224689285Y-201964085D01*
X224760714Y-202035514D01*
X224903571Y-202106942D01*
X225189285Y-202106942D01*
X225332142Y-202035514D01*
X225403571Y-201964085D01*
X225475000Y-201821228D01*
X226117857Y-202106942D02*
X227260714Y-202106942D01*
X228760714Y-202678371D02*
X227903571Y-202678371D01*
X228332142Y-202678371D02*
X228332142Y-201178371D01*
X228189285Y-201392657D01*
X228046428Y-201535514D01*
X227903571Y-201606942D01*
X229260714Y-201178371D02*
X230260714Y-201178371D01*
X229617857Y-202678371D01*
D10*
D12*
X227809285Y-196678571D02*
X227309285Y-195964285D01*
X226952142Y-196678571D02*
X226952142Y-195178571D01*
X227523571Y-195178571D01*
X227666428Y-195250000D01*
X227737857Y-195321428D01*
X227809285Y-195464285D01*
X227809285Y-195678571D01*
X227737857Y-195821428D01*
X227666428Y-195892857D01*
X227523571Y-195964285D01*
X226952142Y-195964285D01*
X229023571Y-196607142D02*
X228880714Y-196678571D01*
X228595000Y-196678571D01*
X228452142Y-196607142D01*
X228380714Y-196464285D01*
X228380714Y-195892857D01*
X228452142Y-195750000D01*
X228595000Y-195678571D01*
X228880714Y-195678571D01*
X229023571Y-195750000D01*
X229095000Y-195892857D01*
X229095000Y-196035714D01*
X228380714Y-196178571D01*
X229595000Y-195678571D02*
X229952142Y-196678571D01*
X230309285Y-195678571D01*
X230880714Y-196535714D02*
X230952142Y-196607142D01*
X230880714Y-196678571D01*
X230809285Y-196607142D01*
X230880714Y-196535714D01*
X230880714Y-196678571D01*
X230880714Y-195750000D02*
X230952142Y-195821428D01*
X230880714Y-195892857D01*
X230809285Y-195821428D01*
X230880714Y-195750000D01*
X230880714Y-195892857D01*
X232737857Y-196107142D02*
X233880714Y-196107142D01*
D10*
D11*
X186760714Y-202606942D02*
X186975000Y-202678371D01*
X187332142Y-202678371D01*
X187475000Y-202606942D01*
X187546428Y-202535514D01*
X187617857Y-202392657D01*
X187617857Y-202249800D01*
X187546428Y-202106942D01*
X187475000Y-202035514D01*
X187332142Y-201964085D01*
X187046428Y-201892657D01*
X186903571Y-201821228D01*
X186832142Y-201749800D01*
X186760714Y-201606942D01*
X186760714Y-201464085D01*
X186832142Y-201321228D01*
X186903571Y-201249800D01*
X187046428Y-201178371D01*
X187403571Y-201178371D01*
X187617857Y-201249800D01*
X188260714Y-202678371D02*
X188260714Y-201678371D01*
X188260714Y-201178371D02*
X188189285Y-201249800D01*
X188260714Y-201321228D01*
X188332142Y-201249800D01*
X188260714Y-201178371D01*
X188260714Y-201321228D01*
X188832142Y-201678371D02*
X189617857Y-201678371D01*
X188832142Y-202678371D01*
X189617857Y-202678371D01*
X190760714Y-202606942D02*
X190617857Y-202678371D01*
X190332142Y-202678371D01*
X190189285Y-202606942D01*
X190117857Y-202464085D01*
X190117857Y-201892657D01*
X190189285Y-201749800D01*
X190332142Y-201678371D01*
X190617857Y-201678371D01*
X190760714Y-201749800D01*
X190832142Y-201892657D01*
X190832142Y-202035514D01*
X190117857Y-202178371D01*
X191475000Y-202535514D02*
X191546428Y-202606942D01*
X191475000Y-202678371D01*
X191403571Y-202606942D01*
X191475000Y-202535514D01*
X191475000Y-202678371D01*
X191475000Y-201749800D02*
X191546428Y-201821228D01*
X191475000Y-201892657D01*
X191403571Y-201821228D01*
X191475000Y-201749800D01*
X191475000Y-201892657D01*
X193260714Y-202249800D02*
X193975000Y-202249800D01*
X193117857Y-202678371D02*
X193617857Y-201178371D01*
X194117857Y-202678371D01*
D10*
D11*
X245832142Y-202478571D02*
X245832142Y-200978571D01*
X247189285Y-202478571D02*
X247189285Y-200978571D01*
X247189285Y-202407142D02*
X247046428Y-202478571D01*
X246760714Y-202478571D01*
X246617857Y-202407142D01*
X246546428Y-202335714D01*
X246475000Y-202192857D01*
X246475000Y-201764285D01*
X246546428Y-201621428D01*
X246617857Y-201550000D01*
X246760714Y-201478571D01*
X247046428Y-201478571D01*
X247189285Y-201550000D01*
X247903571Y-202335714D02*
X247975000Y-202407142D01*
X247903571Y-202478571D01*
X247832142Y-202407142D01*
X247903571Y-202335714D01*
X247903571Y-202478571D01*
X247903571Y-201550000D02*
X247975000Y-201621428D01*
X247903571Y-201692857D01*
X247832142Y-201621428D01*
X247903571Y-201550000D01*
X247903571Y-201692857D01*
X250546428Y-202478571D02*
X249689285Y-202478571D01*
X250117857Y-202478571D02*
X250117857Y-200978571D01*
X249975000Y-201192857D01*
X249832142Y-201335714D01*
X249689285Y-201407142D01*
X252260714Y-200907142D02*
X250975000Y-202835714D01*
X253546428Y-202478571D02*
X252689285Y-202478571D01*
X253117857Y-202478571D02*
X253117857Y-200978571D01*
X252975000Y-201192857D01*
X252832142Y-201335714D01*
X252689285Y-201407142D01*
D10*
D13*
X186512380Y-181404561D02*
X187655238Y-181404561D01*
X186833809Y-183404561D02*
X187083809Y-181404561D01*
X188071904Y-183404561D02*
X188238571Y-182071228D01*
X188321904Y-181404561D02*
X188214761Y-181499800D01*
X188298095Y-181595038D01*
X188405238Y-181499800D01*
X188321904Y-181404561D01*
X188298095Y-181595038D01*
X188905238Y-182071228D02*
X189667142Y-182071228D01*
X189274285Y-181404561D02*
X189060000Y-183118847D01*
X189131428Y-183309323D01*
X189310000Y-183404561D01*
X189500476Y-183404561D01*
X190452857Y-183404561D02*
X190274285Y-183309323D01*
X190202857Y-183118847D01*
X190417142Y-181404561D01*
X191988571Y-183309323D02*
X191786190Y-183404561D01*
X191405238Y-183404561D01*
X191226666Y-183309323D01*
X191155238Y-183118847D01*
X191250476Y-182356942D01*
X191369523Y-182166466D01*
X191571904Y-182071228D01*
X191952857Y-182071228D01*
X192131428Y-182166466D01*
X192202857Y-182356942D01*
X192179047Y-182547419D01*
X191202857Y-182737895D01*
X192952857Y-183214085D02*
X193036190Y-183309323D01*
X192929047Y-183404561D01*
X192845714Y-183309323D01*
X192952857Y-183214085D01*
X192929047Y-183404561D01*
X193083809Y-182166466D02*
X193167142Y-182261704D01*
X193060000Y-182356942D01*
X192976666Y-182261704D01*
X193083809Y-182166466D01*
X193060000Y-182356942D01*
X196357619Y-183404561D02*
X195405238Y-183404561D01*
X195655238Y-181404561D01*
X197881428Y-183404561D02*
X198012380Y-182356942D01*
X197940952Y-182166466D01*
X197762380Y-182071228D01*
X197381428Y-182071228D01*
X197179047Y-182166466D01*
X197893333Y-183309323D02*
X197690952Y-183404561D01*
X197214761Y-183404561D01*
X197036190Y-183309323D01*
X196964761Y-183118847D01*
X196988571Y-182928371D01*
X197107619Y-182737895D01*
X197310000Y-182642657D01*
X197786190Y-182642657D01*
X197988571Y-182547419D01*
X198810000Y-182071228D02*
X199119523Y-183404561D01*
X199762380Y-182071228D02*
X199119523Y-183404561D01*
X198869523Y-183880752D01*
X198762380Y-183975990D01*
X198560000Y-184071228D01*
X200643333Y-183404561D02*
X200464761Y-183309323D01*
X200381428Y-183214085D01*
X200310000Y-183023609D01*
X200381428Y-182452180D01*
X200500476Y-182261704D01*
X200607619Y-182166466D01*
X200810000Y-182071228D01*
X201095714Y-182071228D01*
X201274285Y-182166466D01*
X201357619Y-182261704D01*
X201429047Y-182452180D01*
X201357619Y-183023609D01*
X201238571Y-183214085D01*
X201131428Y-183309323D01*
X200929047Y-183404561D01*
X200643333Y-183404561D01*
X203190952Y-182071228D02*
X203024285Y-183404561D01*
X202333809Y-182071228D02*
X202202857Y-183118847D01*
X202274285Y-183309323D01*
X202452857Y-183404561D01*
X202738571Y-183404561D01*
X202940952Y-183309323D01*
X203048095Y-183214085D01*
X203857619Y-182071228D02*
X204619523Y-182071228D01*
X204226666Y-181404561D02*
X204012380Y-183118847D01*
X204083809Y-183309323D01*
X204262380Y-183404561D01*
X204452857Y-183404561D01*
X205226666Y-183309323D02*
X205214761Y-183404561D01*
X205095714Y-183595038D01*
X204988571Y-183690276D01*
X208393333Y-182356942D02*
X208667142Y-182452180D01*
X208750476Y-182547419D01*
X208821904Y-182737895D01*
X208786190Y-183023609D01*
X208667142Y-183214085D01*
X208560000Y-183309323D01*
X208357619Y-183404561D01*
X207595714Y-183404561D01*
X207845714Y-181404561D01*
X208512380Y-181404561D01*
X208690952Y-181499800D01*
X208774285Y-181595038D01*
X208845714Y-181785514D01*
X208821904Y-181975990D01*
X208702857Y-182166466D01*
X208595714Y-182261704D01*
X208393333Y-182356942D01*
X207726666Y-182356942D01*
X209595714Y-183404561D02*
X209762380Y-182071228D01*
X209714761Y-182452180D02*
X209833809Y-182261704D01*
X209940952Y-182166466D01*
X210143333Y-182071228D01*
X210333809Y-182071228D01*
X211857619Y-182071228D02*
X211690952Y-183404561D01*
X211000476Y-182071228D02*
X210869523Y-183118847D01*
X210940952Y-183309323D01*
X211119523Y-183404561D01*
X211405238Y-183404561D01*
X211607619Y-183309323D01*
X211714761Y-183214085D01*
X212560000Y-183309323D02*
X212738571Y-183404561D01*
X213119523Y-183404561D01*
X213321904Y-183309323D01*
X213440952Y-183118847D01*
X213452857Y-183023609D01*
X213381428Y-182833133D01*
X213202857Y-182737895D01*
X212917142Y-182737895D01*
X212738571Y-182642657D01*
X212667142Y-182452180D01*
X212679047Y-182356942D01*
X212798095Y-182166466D01*
X213000476Y-182071228D01*
X213286190Y-182071228D01*
X213464761Y-182166466D01*
X214262380Y-183404561D02*
X214512380Y-181404561D01*
X215119523Y-183404561D02*
X215250476Y-182356942D01*
X215179047Y-182166466D01*
X215000476Y-182071228D01*
X214714761Y-182071228D01*
X214512380Y-182166466D01*
X214405238Y-182261704D01*
X216845714Y-183309323D02*
X216643333Y-183404561D01*
X216262380Y-183404561D01*
X216083809Y-183309323D01*
X216012380Y-183118847D01*
X216107619Y-182356942D01*
X216226666Y-182166466D01*
X216429047Y-182071228D01*
X216810000Y-182071228D01*
X216988571Y-182166466D01*
X217060000Y-182356942D01*
X217036190Y-182547419D01*
X216060000Y-182737895D01*
X218643333Y-183404561D02*
X218893333Y-181404561D01*
X218655238Y-183309323D02*
X218452857Y-183404561D01*
X218071904Y-183404561D01*
X217893333Y-183309323D01*
X217810000Y-183214085D01*
X217738571Y-183023609D01*
X217810000Y-182452180D01*
X217929047Y-182261704D01*
X218036190Y-182166466D01*
X218238571Y-182071228D01*
X218619523Y-182071228D01*
X218798095Y-182166466D01*
X221119523Y-183404561D02*
X221369523Y-181404561D01*
X221857619Y-182833133D01*
X222702857Y-181404561D01*
X222452857Y-183404561D01*
X223690952Y-183404561D02*
X223512380Y-183309323D01*
X223429047Y-183214085D01*
X223357619Y-183023609D01*
X223429047Y-182452180D01*
X223548095Y-182261704D01*
X223655238Y-182166466D01*
X223857619Y-182071228D01*
X224143333Y-182071228D01*
X224321904Y-182166466D01*
X224405238Y-182261704D01*
X224476666Y-182452180D01*
X224405238Y-183023609D01*
X224286190Y-183214085D01*
X224179047Y-183309323D01*
X223976666Y-183404561D01*
X223690952Y-183404561D01*
X225095714Y-182071228D02*
X225857619Y-182071228D01*
X225464761Y-181404561D02*
X225250476Y-183118847D01*
X225321904Y-183309323D01*
X225500476Y-183404561D01*
X225690952Y-183404561D01*
X226643333Y-183404561D02*
X226464761Y-183309323D01*
X226381428Y-183214085D01*
X226310000Y-183023609D01*
X226381428Y-182452180D01*
X226500476Y-182261704D01*
X226607619Y-182166466D01*
X226810000Y-182071228D01*
X227095714Y-182071228D01*
X227274285Y-182166466D01*
X227357619Y-182261704D01*
X227429047Y-182452180D01*
X227357619Y-183023609D01*
X227238571Y-183214085D01*
X227131428Y-183309323D01*
X226929047Y-183404561D01*
X226643333Y-183404561D01*
X228167142Y-183404561D02*
X228333809Y-182071228D01*
X228286190Y-182452180D02*
X228405238Y-182261704D01*
X228512380Y-182166466D01*
X228714761Y-182071228D01*
X228905238Y-182071228D01*
X232095714Y-183214085D02*
X231988571Y-183309323D01*
X231690952Y-183404561D01*
X231500476Y-183404561D01*
X231226666Y-183309323D01*
X231060000Y-183118847D01*
X230988571Y-182928371D01*
X230940952Y-182547419D01*
X230976666Y-182261704D01*
X231119523Y-181880752D01*
X231238571Y-181690276D01*
X231452857Y-181499800D01*
X231750476Y-181404561D01*
X231940952Y-181404561D01*
X232214761Y-181499800D01*
X232298095Y-181595038D01*
X233214761Y-183404561D02*
X233036190Y-183309323D01*
X232952857Y-183214085D01*
X232881428Y-183023609D01*
X232952857Y-182452180D01*
X233071904Y-182261704D01*
X233179047Y-182166466D01*
X233381428Y-182071228D01*
X233667142Y-182071228D01*
X233845714Y-182166466D01*
X233929047Y-182261704D01*
X234000476Y-182452180D01*
X233929047Y-183023609D01*
X233810000Y-183214085D01*
X233702857Y-183309323D01*
X233500476Y-183404561D01*
X233214761Y-183404561D01*
X234905238Y-182071228D02*
X234738571Y-183404561D01*
X234881428Y-182261704D02*
X234988571Y-182166466D01*
X235190952Y-182071228D01*
X235476666Y-182071228D01*
X235655238Y-182166466D01*
X235726666Y-182356942D01*
X235595714Y-183404561D01*
X236429047Y-182071228D02*
X237190952Y-182071228D01*
X236798095Y-181404561D02*
X236583809Y-183118847D01*
X236655238Y-183309323D01*
X236833809Y-183404561D01*
X237024285Y-183404561D01*
X237690952Y-183404561D02*
X237857619Y-182071228D01*
X237809999Y-182452180D02*
X237929047Y-182261704D01*
X238036190Y-182166466D01*
X238238571Y-182071228D01*
X238429047Y-182071228D01*
X239214761Y-183404561D02*
X239036190Y-183309323D01*
X238952857Y-183214085D01*
X238881428Y-183023609D01*
X238952857Y-182452180D01*
X239071904Y-182261704D01*
X239179047Y-182166466D01*
X239381428Y-182071228D01*
X239667142Y-182071228D01*
X239845714Y-182166466D01*
X239929047Y-182261704D01*
X240000476Y-182452180D01*
X239929047Y-183023609D01*
X239809999Y-183214085D01*
X239702857Y-183309323D01*
X239500476Y-183404561D01*
X239214761Y-183404561D01*
X241024285Y-183404561D02*
X240845714Y-183309323D01*
X240774285Y-183118847D01*
X240988571Y-181404561D01*
X242071904Y-183404561D02*
X241893333Y-183309323D01*
X241821904Y-183118847D01*
X242036190Y-181404561D01*
X243607619Y-183309323D02*
X243405238Y-183404561D01*
X243024285Y-183404561D01*
X242845714Y-183309323D01*
X242774285Y-183118847D01*
X242869523Y-182356942D01*
X242988571Y-182166466D01*
X243190952Y-182071228D01*
X243571904Y-182071228D01*
X243750476Y-182166466D01*
X243821904Y-182356942D01*
X243798095Y-182547419D01*
X242821904Y-182737895D01*
X244548095Y-183404561D02*
X244714761Y-182071228D01*
X244667142Y-182452180D02*
X244786190Y-182261704D01*
X244893333Y-182166466D01*
X245095714Y-182071228D01*
X245286190Y-182071228D01*
D10*
D11*
X186460714Y-187106942D02*
X186675000Y-187178371D01*
X187032142Y-187178371D01*
X187175000Y-187106942D01*
X187246428Y-187035514D01*
X187317857Y-186892657D01*
X187317857Y-186749800D01*
X187246428Y-186606942D01*
X187175000Y-186535514D01*
X187032142Y-186464085D01*
X186746428Y-186392657D01*
X186603571Y-186321228D01*
X186532142Y-186249800D01*
X186460714Y-186106942D01*
X186460714Y-185964085D01*
X186532142Y-185821228D01*
X186603571Y-185749800D01*
X186746428Y-185678371D01*
X187103571Y-185678371D01*
X187317857Y-185749800D01*
X187960714Y-187178371D02*
X187960714Y-185678371D01*
X188603571Y-187178371D02*
X188603571Y-186392657D01*
X188532142Y-186249800D01*
X188389285Y-186178371D01*
X188175000Y-186178371D01*
X188032142Y-186249800D01*
X187960714Y-186321228D01*
X189889285Y-187106942D02*
X189746428Y-187178371D01*
X189460714Y-187178371D01*
X189317857Y-187106942D01*
X189246428Y-186964085D01*
X189246428Y-186392657D01*
X189317857Y-186249800D01*
X189460714Y-186178371D01*
X189746428Y-186178371D01*
X189889285Y-186249800D01*
X189960714Y-186392657D01*
X189960714Y-186535514D01*
X189246428Y-186678371D01*
X191175000Y-187106942D02*
X191032142Y-187178371D01*
X190746428Y-187178371D01*
X190603571Y-187106942D01*
X190532142Y-186964085D01*
X190532142Y-186392657D01*
X190603571Y-186249800D01*
X190746428Y-186178371D01*
X191032142Y-186178371D01*
X191175000Y-186249800D01*
X191246428Y-186392657D01*
X191246428Y-186535514D01*
X190532142Y-186678371D01*
X191675000Y-186178371D02*
X192246428Y-186178371D01*
X191889285Y-185678371D02*
X191889285Y-186964085D01*
X191960714Y-187106942D01*
X192103571Y-187178371D01*
X192246428Y-187178371D01*
X192746428Y-187035514D02*
X192817857Y-187106942D01*
X192746428Y-187178371D01*
X192675000Y-187106942D01*
X192746428Y-187035514D01*
X192746428Y-187178371D01*
X192746428Y-186249800D02*
X192817857Y-186321228D01*
X192746428Y-186392657D01*
X192675000Y-186321228D01*
X192746428Y-186249800D01*
X192746428Y-186392657D01*
D10*
D11*
X199689285Y-191578371D02*
X199189285Y-190864085D01*
X198832142Y-191578371D02*
X198832142Y-190078371D01*
X199403571Y-190078371D01*
X199546428Y-190149800D01*
X199617857Y-190221228D01*
X199689285Y-190364085D01*
X199689285Y-190578371D01*
X199617857Y-190721228D01*
X199546428Y-190792657D01*
X199403571Y-190864085D01*
X198832142Y-190864085D01*
X200260714Y-191149800D02*
X200975000Y-191149800D01*
X200117857Y-191578371D02*
X200617857Y-190078371D01*
X201117857Y-191578371D01*
X201617857Y-191006942D02*
X202760714Y-191006942D01*
X203475000Y-190792657D02*
X203975000Y-190792657D01*
X204189285Y-191578371D02*
X203475000Y-191578371D01*
X203475000Y-190078371D01*
X204189285Y-190078371D01*
X204832142Y-191006942D02*
X205975000Y-191006942D01*
X206975000Y-190078371D02*
X207117857Y-190078371D01*
X207260714Y-190149800D01*
X207332142Y-190221228D01*
X207403571Y-190364085D01*
X207475000Y-190649800D01*
X207475000Y-191006942D01*
X207403571Y-191292657D01*
X207332142Y-191435514D01*
X207260714Y-191506942D01*
X207117857Y-191578371D01*
X206975000Y-191578371D01*
X206832142Y-191506942D01*
X206760714Y-191435514D01*
X206689285Y-191292657D01*
X206617857Y-191006942D01*
X206617857Y-190649800D01*
X206689285Y-190364085D01*
X206760714Y-190221228D01*
X206832142Y-190149800D01*
X206975000Y-190078371D01*
X208403571Y-190078371D02*
X208546428Y-190078371D01*
X208689285Y-190149800D01*
X208760714Y-190221228D01*
X208832142Y-190364085D01*
X208903571Y-190649800D01*
X208903571Y-191006942D01*
X208832142Y-191292657D01*
X208760714Y-191435514D01*
X208689285Y-191506942D01*
X208546428Y-191578371D01*
X208403571Y-191578371D01*
X208260714Y-191506942D01*
X208189285Y-191435514D01*
X208117857Y-191292657D01*
X208046428Y-191006942D01*
X208046428Y-190649800D01*
X208117857Y-190364085D01*
X208189285Y-190221228D01*
X208260714Y-190149800D01*
X208403571Y-190078371D01*
X209403571Y-190078371D02*
X210332142Y-190078371D01*
X209832142Y-190649800D01*
X210046428Y-190649800D01*
X210189285Y-190721228D01*
X210260714Y-190792657D01*
X210332142Y-190935514D01*
X210332142Y-191292657D01*
X210260714Y-191435514D01*
X210189285Y-191506942D01*
X210046428Y-191578371D01*
X209617857Y-191578371D01*
X209475000Y-191506942D01*
X209403571Y-191435514D01*
D10*
D11*
X241832142Y-190578371D02*
X241832142Y-192078371D01*
X241832142Y-190649800D02*
X241975000Y-190578371D01*
X242260714Y-190578371D01*
X242403571Y-190649800D01*
X242475000Y-190721228D01*
X242546428Y-190864085D01*
X242546428Y-191292657D01*
X242475000Y-191435514D01*
X242403571Y-191506942D01*
X242260714Y-191578371D01*
X241975000Y-191578371D01*
X241832142Y-191506942D01*
X243189285Y-191578371D02*
X243189285Y-190078371D01*
X243832142Y-191578371D02*
X243832142Y-190792657D01*
X243760714Y-190649800D01*
X243617857Y-190578371D01*
X243403571Y-190578371D01*
X243260714Y-190649800D01*
X243189285Y-190721228D01*
X244546428Y-191578371D02*
X244546428Y-190078371D01*
X244546428Y-190649800D02*
X244689285Y-190578371D01*
X244975000Y-190578371D01*
X245117857Y-190649800D01*
X245189285Y-190721228D01*
X245260714Y-190864085D01*
X245260714Y-191292657D01*
X245189285Y-191435514D01*
X245117857Y-191506942D01*
X244975000Y-191578371D01*
X244689285Y-191578371D01*
X244546428Y-191506942D01*
D10*
D11*
X198832142Y-195578371D02*
X198832142Y-197078371D01*
X198832142Y-195649800D02*
X198975000Y-195578371D01*
X199260714Y-195578371D01*
X199403571Y-195649800D01*
X199475000Y-195721228D01*
X199546428Y-195864085D01*
X199546428Y-196292657D01*
X199475000Y-196435514D01*
X199403571Y-196506942D01*
X199260714Y-196578371D01*
X198975000Y-196578371D01*
X198832142Y-196506942D01*
X200189285Y-196578371D02*
X200189285Y-195078371D01*
X200832142Y-196578371D02*
X200832142Y-195792657D01*
X200760714Y-195649800D01*
X200617857Y-195578371D01*
X200403571Y-195578371D01*
X200260714Y-195649800D01*
X200189285Y-195721228D01*
X201546428Y-196578371D02*
X201546428Y-195078371D01*
X201546428Y-195649800D02*
X201689285Y-195578371D01*
X201975000Y-195578371D01*
X202117857Y-195649800D01*
X202189285Y-195721228D01*
X202260714Y-195864085D01*
X202260714Y-196292657D01*
X202189285Y-196435514D01*
X202117857Y-196506942D01*
X201975000Y-196578371D01*
X201689285Y-196578371D01*
X201546428Y-196506942D01*
D10*
D11*
X243400000Y-197400000D02*
X243400000Y-203900000D01*
D10*
D11*
X267411000Y-187897800D02*
X267411000Y-176897800D01*
X185411000Y-176897800D01*
X185411000Y-187897800D01*
X267411000Y-187897800D01*
D10*
D14*
X185411000Y-176898000D02*
X185411000Y-176898000D01*
X185411000Y-176898000D01*
X185411000Y-176898000D01*
X185411000Y-176898000D01*
D10*
D12*
X186963142Y-196576571D02*
X186963142Y-195076571D01*
X187320285Y-195076571D01*
X187534571Y-195148000D01*
X187677428Y-195290857D01*
X187748857Y-195433714D01*
X187820285Y-195719428D01*
X187820285Y-195933714D01*
X187748857Y-196219428D01*
X187677428Y-196362285D01*
X187534571Y-196505142D01*
X187320285Y-196576571D01*
X186963142Y-196576571D01*
X188463142Y-196576571D02*
X188463142Y-195576571D01*
X188463142Y-195862285D02*
X188534571Y-195719428D01*
X188606000Y-195648000D01*
X188748857Y-195576571D01*
X188891714Y-195576571D01*
X190034571Y-196576571D02*
X190034571Y-195790857D01*
X189963142Y-195648000D01*
X189820285Y-195576571D01*
X189534571Y-195576571D01*
X189391714Y-195648000D01*
X190034571Y-196505142D02*
X189891714Y-196576571D01*
X189534571Y-196576571D01*
X189391714Y-196505142D01*
X189320285Y-196362285D01*
X189320285Y-196219428D01*
X189391714Y-196076571D01*
X189534571Y-196005142D01*
X189891714Y-196005142D01*
X190034571Y-195933714D01*
X190606000Y-195576571D02*
X190891714Y-196576571D01*
X191177428Y-195862285D01*
X191463142Y-196576571D01*
X191748857Y-195576571D01*
X192320285Y-195576571D02*
X192320285Y-196576571D01*
X192320285Y-195719428D02*
X192391714Y-195648000D01*
X192534571Y-195576571D01*
X192748857Y-195576571D01*
X192891714Y-195648000D01*
X192963142Y-195790857D01*
X192963142Y-196576571D01*
X194820285Y-196576571D02*
X194820285Y-195076571D01*
X194820285Y-195648000D02*
X194963142Y-195576571D01*
X195248857Y-195576571D01*
X195391714Y-195648000D01*
X195463142Y-195719428D01*
X195534571Y-195862285D01*
X195534571Y-196290857D01*
X195463142Y-196433714D01*
X195391714Y-196505142D01*
X195248857Y-196576571D01*
X194963142Y-196576571D01*
X194820285Y-196505142D01*
X196034571Y-195576571D02*
X196391714Y-196576571D01*
X196748857Y-195576571D02*
X196391714Y-196576571D01*
X196248857Y-196933714D01*
X196177428Y-197005142D01*
X196034571Y-197076571D01*
X197320285Y-196433714D02*
X197391714Y-196505142D01*
X197320285Y-196576571D01*
X197248857Y-196505142D01*
X197320285Y-196433714D01*
X197320285Y-196576571D01*
X197320285Y-195648000D02*
X197391714Y-195719428D01*
X197320285Y-195790857D01*
X197248857Y-195719428D01*
X197320285Y-195648000D01*
X197320285Y-195790857D01*
D10*
D11*
X225411000Y-187897800D02*
X225411000Y-192897800D01*
D10*
D12*
X227820285Y-191433714D02*
X227748857Y-191505142D01*
X227534571Y-191576571D01*
X227391714Y-191576571D01*
X227177428Y-191505142D01*
X227034571Y-191362285D01*
X226963142Y-191219428D01*
X226891714Y-190933714D01*
X226891714Y-190719428D01*
X226963142Y-190433714D01*
X227034571Y-190290857D01*
X227177428Y-190148000D01*
X227391714Y-190076571D01*
X227534571Y-190076571D01*
X227748857Y-190148000D01*
X227820285Y-190219428D01*
X228463142Y-191576571D02*
X228463142Y-190076571D01*
X229106000Y-191576571D02*
X229106000Y-190790857D01*
X229034571Y-190648000D01*
X228891714Y-190576571D01*
X228677428Y-190576571D01*
X228534571Y-190648000D01*
X228463142Y-190719428D01*
X230391714Y-191505142D02*
X230248857Y-191576571D01*
X229963142Y-191576571D01*
X229820285Y-191505142D01*
X229748857Y-191362285D01*
X229748857Y-190790857D01*
X229820285Y-190648000D01*
X229963142Y-190576571D01*
X230248857Y-190576571D01*
X230391714Y-190648000D01*
X230463142Y-190790857D01*
X230463142Y-190933714D01*
X229748857Y-191076571D01*
X231748857Y-191505142D02*
X231606000Y-191576571D01*
X231320285Y-191576571D01*
X231177428Y-191505142D01*
X231106000Y-191433714D01*
X231034571Y-191290857D01*
X231034571Y-190862285D01*
X231106000Y-190719428D01*
X231177428Y-190648000D01*
X231320285Y-190576571D01*
X231606000Y-190576571D01*
X231748857Y-190648000D01*
X232391714Y-191576571D02*
X232391714Y-190076571D01*
X232534571Y-191005142D02*
X232963142Y-191576571D01*
X232963142Y-190576571D02*
X232391714Y-191148000D01*
X234177428Y-191505142D02*
X234034571Y-191576571D01*
X233748857Y-191576571D01*
X233606000Y-191505142D01*
X233534571Y-191362285D01*
X233534571Y-190790857D01*
X233606000Y-190648000D01*
X233748857Y-190576571D01*
X234034571Y-190576571D01*
X234177428Y-190648000D01*
X234248857Y-190790857D01*
X234248857Y-190933714D01*
X233534571Y-191076571D01*
X235534571Y-191576571D02*
X235534571Y-190076571D01*
X235534571Y-191505142D02*
X235391714Y-191576571D01*
X235106000Y-191576571D01*
X234963142Y-191505142D01*
X234891714Y-191433714D01*
X234820285Y-191290857D01*
X234820285Y-190862285D01*
X234891714Y-190719428D01*
X234963142Y-190648000D01*
X235106000Y-190576571D01*
X235391714Y-190576571D01*
X235534571Y-190648000D01*
X237391714Y-191576571D02*
X237391714Y-190076571D01*
X237391714Y-190648000D02*
X237534571Y-190576571D01*
X237820285Y-190576571D01*
X237963142Y-190648000D01*
X238034571Y-190719428D01*
X238106000Y-190862285D01*
X238106000Y-191290857D01*
X238034571Y-191433714D01*
X237963142Y-191505142D01*
X237820285Y-191576571D01*
X237534571Y-191576571D01*
X237391714Y-191505142D01*
X238606000Y-190576571D02*
X238963142Y-191576571D01*
X239320285Y-190576571D02*
X238963142Y-191576571D01*
X238820285Y-191933714D01*
X238748857Y-192005142D01*
X238606000Y-192076571D01*
X239891714Y-191433714D02*
X239963142Y-191505142D01*
X239891714Y-191576571D01*
X239820285Y-191505142D01*
X239891714Y-191433714D01*
X239891714Y-191576571D01*
X239891714Y-190648000D02*
X239963142Y-190719428D01*
X239891714Y-190790857D01*
X239820285Y-190719428D01*
X239891714Y-190648000D01*
X239891714Y-190790857D01*
D10*
D11*
X185411000Y-192897800D02*
X185411000Y-197897800D01*
D10*
D11*
X185411000Y-192897800D02*
X267411000Y-192897800D01*
D10*
D11*
X185411000Y-192897800D02*
X185411000Y-187897800D01*
D10*
D12*
X186963142Y-191576571D02*
X186963142Y-190076571D01*
X187320285Y-190076571D01*
X187534571Y-190148000D01*
X187677428Y-190290857D01*
X187748857Y-190433714D01*
X187820285Y-190719428D01*
X187820285Y-190933714D01*
X187748857Y-191219428D01*
X187677428Y-191362285D01*
X187534571Y-191505142D01*
X187320285Y-191576571D01*
X186963142Y-191576571D01*
X188320285Y-190576571D02*
X188606000Y-191576571D01*
X188891714Y-190862285D01*
X189177428Y-191576571D01*
X189463142Y-190576571D01*
X190677428Y-190576571D02*
X190677428Y-191790857D01*
X190606000Y-191933714D01*
X190534571Y-192005142D01*
X190391714Y-192076571D01*
X190177428Y-192076571D01*
X190034571Y-192005142D01*
X190677428Y-191505142D02*
X190534571Y-191576571D01*
X190248857Y-191576571D01*
X190106000Y-191505142D01*
X190034571Y-191433714D01*
X189963142Y-191290857D01*
X189963142Y-190862285D01*
X190034571Y-190719428D01*
X190106000Y-190648000D01*
X190248857Y-190576571D01*
X190534571Y-190576571D01*
X190677428Y-190648000D01*
X192534571Y-190576571D02*
X192534571Y-191576571D01*
X192534571Y-190719428D02*
X192606000Y-190648000D01*
X192748857Y-190576571D01*
X192963142Y-190576571D01*
X193106000Y-190648000D01*
X193177428Y-190790857D01*
X193177428Y-191576571D01*
X194106000Y-191576571D02*
X193963142Y-191505142D01*
X193891714Y-191433714D01*
X193820285Y-191290857D01*
X193820285Y-190862285D01*
X193891714Y-190719428D01*
X193963142Y-190648000D01*
X194106000Y-190576571D01*
X194320285Y-190576571D01*
X194463142Y-190648000D01*
X194534571Y-190719428D01*
X194606000Y-190862285D01*
X194606000Y-191290857D01*
X194534571Y-191433714D01*
X194463142Y-191505142D01*
X194320285Y-191576571D01*
X194106000Y-191576571D01*
X195248857Y-191433714D02*
X195320285Y-191505142D01*
X195248857Y-191576571D01*
X195177428Y-191505142D01*
X195248857Y-191433714D01*
X195248857Y-191576571D01*
X195963142Y-191433714D02*
X196034571Y-191505142D01*
X195963142Y-191576571D01*
X195891714Y-191505142D01*
X195963142Y-191433714D01*
X195963142Y-191576571D01*
X195963142Y-190648000D02*
X196034571Y-190719428D01*
X195963142Y-190790857D01*
X195891714Y-190719428D01*
X195963142Y-190648000D01*
X195963142Y-190790857D01*
D10*
D11*
X225411000Y-192897800D02*
X225411000Y-197897800D01*
D10*
D11*
X185411000Y-197897800D02*
X267411000Y-197897800D01*
D10*
D11*
X185411000Y-197897800D02*
X185411000Y-203897800D01*
D10*
D11*
X258876133Y-182368871D02*
X258465419Y-181654585D01*
X258018991Y-182368871D02*
X258206491Y-180868871D01*
X258777919Y-180868871D01*
X258911848Y-180940300D01*
X258974348Y-181011728D01*
X259027919Y-181154585D01*
X259001133Y-181368871D01*
X258911848Y-181511728D01*
X258831491Y-181583157D01*
X258679705Y-181654585D01*
X258108276Y-181654585D01*
X259733276Y-182368871D02*
X259599348Y-182297442D01*
X259536848Y-182226014D01*
X259483276Y-182083157D01*
X259536848Y-181654585D01*
X259626133Y-181511728D01*
X259706491Y-181440300D01*
X259858276Y-181368871D01*
X260072562Y-181368871D01*
X260206491Y-181440300D01*
X260268991Y-181511728D01*
X260322562Y-181654585D01*
X260268991Y-182083157D01*
X260179705Y-182226014D01*
X260099348Y-182297442D01*
X259947562Y-182368871D01*
X259733276Y-182368871D01*
X260786848Y-181368871D02*
X261358276Y-181368871D01*
X261063633Y-180868871D02*
X260902919Y-182154585D01*
X260956491Y-182297442D01*
X261090419Y-182368871D01*
X261233276Y-182368871D01*
X261947562Y-182368871D02*
X261813633Y-182297442D01*
X261760062Y-182154585D01*
X261920776Y-180868871D01*
X262518991Y-182368871D02*
X262643991Y-181368871D01*
X262706491Y-180868871D02*
X262626133Y-180940300D01*
X262688633Y-181011728D01*
X262768991Y-180940300D01*
X262706491Y-180868871D01*
X262688633Y-181011728D01*
X255572562Y-184355300D02*
X256286848Y-184355300D01*
X255376133Y-184783871D02*
X256063633Y-183283871D01*
X256376133Y-184783871D01*
X256813633Y-184712442D02*
X256947562Y-184783871D01*
X257233276Y-184783871D01*
X257385062Y-184712442D01*
X257474348Y-184569585D01*
X257483276Y-184498157D01*
X257429705Y-184355300D01*
X257295776Y-184283871D01*
X257081491Y-184283871D01*
X256947562Y-184212442D01*
X256893991Y-184069585D01*
X256902919Y-183998157D01*
X256992205Y-183855300D01*
X257143991Y-183783871D01*
X257358276Y-183783871D01*
X257492205Y-183855300D01*
X258027919Y-184712442D02*
X258161848Y-184783871D01*
X258447562Y-184783871D01*
X258599348Y-184712442D01*
X258688633Y-184569585D01*
X258697562Y-184498157D01*
X258643991Y-184355300D01*
X258510062Y-184283871D01*
X258295776Y-184283871D01*
X258161848Y-184212442D01*
X258108276Y-184069585D01*
X258117205Y-183998157D01*
X258206491Y-183855300D01*
X258358276Y-183783871D01*
X258572562Y-183783871D01*
X258706491Y-183855300D01*
X259304705Y-184783871D02*
X259429705Y-183783871D01*
X259492205Y-183283871D02*
X259411848Y-183355300D01*
X259474348Y-183426728D01*
X259554705Y-183355300D01*
X259492205Y-183283871D01*
X259474348Y-183426728D01*
X259956491Y-184712442D02*
X260090419Y-184783871D01*
X260376133Y-184783871D01*
X260527919Y-184712442D01*
X260617205Y-184569585D01*
X260626133Y-184498157D01*
X260572562Y-184355300D01*
X260438633Y-184283871D01*
X260224348Y-184283871D01*
X260090419Y-184212442D01*
X260036848Y-184069585D01*
X260045776Y-183998157D01*
X260135062Y-183855300D01*
X260286848Y-183783871D01*
X260501133Y-183783871D01*
X260635062Y-183855300D01*
X261143991Y-183783871D02*
X261715419Y-183783871D01*
X261420776Y-183283871D02*
X261260062Y-184569585D01*
X261313633Y-184712442D01*
X261447562Y-184783871D01*
X261590419Y-184783871D01*
X262733276Y-184783871D02*
X262831491Y-183998157D01*
X262777919Y-183855300D01*
X262643991Y-183783871D01*
X262358276Y-183783871D01*
X262206491Y-183855300D01*
X262742205Y-184712442D02*
X262590419Y-184783871D01*
X262233276Y-184783871D01*
X262099348Y-184712442D01*
X262045776Y-184569585D01*
X262063633Y-184426728D01*
X262152919Y-184283871D01*
X262304705Y-184212442D01*
X262661848Y-184212442D01*
X262813633Y-184141014D01*
X263572562Y-183783871D02*
X263447562Y-184783871D01*
X263554705Y-183926728D02*
X263635062Y-183855300D01*
X263786848Y-183783871D01*
X264001133Y-183783871D01*
X264135062Y-183855300D01*
X264188633Y-183998157D01*
X264090419Y-184783871D01*
X264715419Y-183783871D02*
X265286848Y-183783871D01*
X264992205Y-183283871D02*
X264831491Y-184569585D01*
X264885062Y-184712442D01*
X265018991Y-184783871D01*
X265161848Y-184783871D01*
D10*
D11*
X253411000Y-176897800D02*
X253411000Y-187897800D01*
X267411000Y-187897800D01*
X267411000Y-176897800D01*
X253411000Y-176897800D01*
D10*
D11*
X259411000Y-180897800D02*
X260411000Y-180897800D01*
M02*
